<svg width="480" height="480" viewBox="0 0 480 480" fill="none" xmlns="http://www.w3.org/2000/svg">
<path d="M230.4 16.6769H173.952C171.648 16.6769 170.112 14.7577 170.112 12.8385C170.112 10.9192 172.032 9 173.952 9H230.4C232.704 9 234.24 10.9192 234.24 12.8385C234.24 14.7577 232.704 16.6769 230.4 16.6769Z" fill="#FFFAEE"/>
<path d="M230.4 33.5661H131.712C129.408 33.5661 127.872 31.6469 127.872 29.7276C127.872 27.4245 129.792 25.8892 131.712 25.8892H230.784C233.088 25.8892 234.624 27.8084 234.624 29.7276C234.24 31.6469 232.704 33.5661 230.4 33.5661Z" fill="#FFFAEE"/>
<path d="M230.4 50.0715H102.912C100.608 50.0715 99.0718 48.1522 99.0718 46.233C99.0718 44.3138 100.992 42.3945 102.912 42.3945H230.4C232.704 42.3945 234.24 44.3138 234.24 46.233C234.24 48.1522 232.704 50.0715 230.4 50.0715Z" fill="#FFFAEE"/>
<path d="M230.4 66.9606H82.944C80.64 66.9606 79.104 65.0414 79.104 63.1222C79.104 60.8191 81.024 59.2837 82.944 59.2837H230.784C233.088 59.2837 234.624 61.2029 234.624 63.1222C234.24 65.4252 232.704 66.9606 230.4 66.9606Z" fill="#FFFAEE"/>
<path d="M230.4 83.8503H65.2799C62.9759 83.8503 61.4399 81.931 61.4399 80.0118C61.4399 78.0926 63.3599 76.1733 65.2799 76.1733H230.4C232.704 76.1733 234.24 78.0926 234.24 80.0118C234.24 81.931 232.704 83.8503 230.4 83.8503Z" fill="#FFFAEE"/>
<path d="M230.4 100.739H50.6881C48.3841 100.739 46.8481 98.8202 46.8481 96.901C46.8481 94.5979 48.7681 93.0625 50.6881 93.0625H230.784C233.088 93.0625 234.624 94.9817 234.624 96.901C234.24 98.8202 232.704 100.739 230.4 100.739Z" fill="#FFFAEE"/>
<path d="M230.4 117.245H39.9362C37.6322 117.245 36.0962 115.326 36.0962 113.406C36.0962 111.103 38.0162 109.568 39.9362 109.568H230.4C232.704 109.568 234.24 111.487 234.24 113.406C234.24 115.709 232.704 117.245 230.4 117.245Z" fill="#FFFAEE"/>
<path d="M230.4 134.134H30.3361C28.0321 134.134 26.4961 132.215 26.4961 130.296C26.4961 127.992 28.4161 126.457 30.3361 126.457H230.4C232.704 126.457 234.24 128.376 234.24 130.296C234.24 132.599 232.704 134.134 230.4 134.134Z" fill="#FFFAEE"/>
<path d="M230.4 151.023H21.8879C19.5839 151.023 18.0479 149.104 18.0479 147.185C18.0479 145.265 19.9679 143.346 21.8879 143.346H230.784C233.088 143.346 234.624 145.265 234.624 147.185C234.624 149.104 232.704 151.023 230.4 151.023Z" fill="#FFFAEE"/>
<path d="M230.4 167.913H14.592C12.288 167.913 10.752 165.994 10.752 164.074C10.752 161.771 12.672 160.236 14.592 160.236H230.4C232.704 160.236 234.24 162.155 234.24 164.074C234.24 165.994 232.704 167.913 230.4 167.913Z" fill="#FFFAEE"/>
<path d="M230.4 184.418H9.59977C7.29577 184.418 5.75977 182.499 5.75977 180.58C5.75977 178.66 7.67977 176.741 9.59977 176.741H230.4C232.704 176.741 234.24 178.66 234.24 180.58C234.24 182.499 232.704 184.418 230.4 184.418Z" fill="#FFFAEE"/>
<path d="M230.4 201.307H9.59977C7.29577 201.307 5.75977 199.388 5.75977 197.469C5.75977 195.55 7.67977 193.63 9.59977 193.63H230.4C232.704 193.63 234.24 195.55 234.24 197.469C234.24 199.388 232.704 201.307 230.4 201.307Z" fill="#FFFAEE"/>
<path d="M230.4 218.196H3.84C1.536 218.196 0 216.277 0 214.358C0 212.055 1.92 210.52 3.84 210.52H230.784C233.088 210.52 234.624 212.439 234.624 214.358C234.24 216.277 232.704 218.196 230.4 218.196Z" fill="#FFFAEE"/>
<path d="M230.4 235.086H3.84C1.536 235.086 0 233.166 0 231.247C0 229.328 1.92 227.409 3.84 227.409H230.784C233.088 227.409 234.624 229.328 234.624 231.247C234.624 233.166 232.704 235.086 230.4 235.086Z" fill="#FFFAEE"/>
<path d="M230.4 251.591H3.84C1.536 251.591 0 249.672 0 247.753C0 245.833 1.92 243.914 3.84 243.914H230.784C233.088 243.914 234.624 245.833 234.624 247.753C234.624 249.672 232.704 251.591 230.4 251.591Z" fill="#FFFAEE"/>
<path d="M230.4 268.481H3.84C1.536 268.481 0 266.561 0 264.642C0 262.339 1.92 260.804 3.84 260.804H230.784C233.088 260.804 234.624 262.723 234.624 264.642C234.24 266.945 232.704 268.481 230.4 268.481Z" fill="#FFFAEE"/>
<path d="M230.4 285.37H9.59977C7.29577 285.37 5.75977 283.451 5.75977 281.531C5.75977 279.612 7.67977 277.693 9.59977 277.693H230.4C232.704 277.693 234.24 279.612 234.24 281.531C234.24 283.451 232.704 285.37 230.4 285.37Z" fill="#FFFAEE"/>
<path d="M230.4 302.259H9.59977C7.29577 302.259 5.75977 300.34 5.75977 298.421C5.75977 296.501 7.67977 294.582 9.59977 294.582H230.4C232.704 294.582 234.24 296.501 234.24 298.421C234.24 300.34 232.704 302.259 230.4 302.259Z" fill="#FFFAEE"/>
<path d="M230.4 318.764H14.592C12.288 318.764 10.752 316.845 10.752 314.926C10.752 312.623 12.672 311.087 14.592 311.087H230.4C232.704 311.087 234.24 313.007 234.24 314.926C234.24 317.229 232.704 318.764 230.4 318.764Z" fill="#FFFAEE"/>
<path d="M230.4 335.654H21.8879C19.5839 335.654 18.0479 333.734 18.0479 331.815C18.0479 329.896 19.9679 327.977 21.8879 327.977H230.784C233.088 327.977 234.624 329.896 234.624 331.815C234.624 333.734 232.704 335.654 230.4 335.654Z" fill="#FFFAEE"/>
<path d="M230.4 352.543H30.3361C28.0321 352.543 26.4961 350.623 26.4961 348.704C26.4961 346.401 28.4161 344.866 30.3361 344.866H230.4C232.704 344.866 234.24 346.785 234.24 348.704C234.24 350.623 232.704 352.543 230.4 352.543Z" fill="#FFFAEE"/>
<path d="M230.4 369.432H39.9362C37.6322 369.432 36.0962 367.513 36.0962 365.594C36.0962 363.291 38.0162 361.755 39.9362 361.755H230.4C232.704 361.755 234.24 363.675 234.24 365.594C234.24 367.513 232.704 369.432 230.4 369.432Z" fill="#FFFAEE"/>
<path d="M230.4 386.321H50.6881C48.3841 386.321 46.8481 384.402 46.8481 382.483C46.8481 380.18 48.7681 378.645 50.6881 378.645H230.784C233.088 378.645 234.624 380.564 234.624 382.483C234.24 384.402 232.704 386.321 230.4 386.321Z" fill="#FFFAEE"/>
<path d="M230.4 402.827H65.2799C62.9759 402.827 61.4399 400.908 61.4399 398.988C61.4399 396.685 63.3599 395.15 65.2799 395.15H230.4C232.704 395.15 234.24 397.069 234.24 398.988C234.24 401.291 232.704 402.827 230.4 402.827Z" fill="#FFFAEE"/>
<path d="M230.4 419.716H82.944C80.64 419.716 79.104 417.797 79.104 415.878C79.104 413.574 81.024 412.039 82.944 412.039H230.784C233.088 412.039 234.624 413.958 234.624 415.878C234.24 418.181 232.704 419.716 230.4 419.716Z" fill="#FFFAEE"/>
<path d="M230.4 436.605H102.912C100.608 436.605 99.0718 434.686 99.0718 432.767C99.0718 430.847 100.992 428.928 102.912 428.928H230.4C232.704 428.928 234.24 430.847 234.24 432.767C234.24 434.686 232.704 436.605 230.4 436.605Z" fill="#FFFAEE"/>
<path d="M230.4 453.494H131.712C129.408 453.494 127.872 451.575 127.872 449.656C127.872 447.353 129.792 445.817 131.712 445.817H230.784C233.088 445.817 234.624 447.737 234.624 449.656C234.24 451.575 232.704 453.494 230.4 453.494Z" fill="#FFFAEE"/>
<path d="M230.4 470H173.952C171.648 470 170.112 468.081 170.112 466.162C170.112 463.859 172.032 462.323 173.952 462.323H230.4C232.704 462.323 234.24 464.242 234.24 466.162C234.24 468.465 232.704 470 230.4 470Z" fill="#FFFAEE"/>
<path d="M305.664 470H249.216C246.912 470 245.376 468.081 245.376 466.162C245.376 463.859 247.296 462.323 249.216 462.323H305.664C307.968 462.323 309.504 464.242 309.504 466.162C309.504 468.465 307.584 470 305.664 470Z" fill="#FFFAEE"/>
<path d="M347.904 453.494H249.216C246.912 453.494 245.376 451.575 245.376 449.656C245.376 447.353 247.296 445.817 249.216 445.817H348.288C350.592 445.817 352.128 447.737 352.128 449.656C351.744 451.575 350.208 453.494 347.904 453.494Z" fill="#FFFAEE"/>
<path d="M376.704 436.605H249.216C246.912 436.605 245.376 434.686 245.376 432.767C245.376 430.847 247.296 428.928 249.216 428.928H376.704C379.008 428.928 380.544 430.847 380.544 432.767C380.544 434.686 379.008 436.605 376.704 436.605Z" fill="#FFFAEE"/>
<path d="M396.672 419.716H249.216C246.912 419.716 245.376 417.797 245.376 415.878C245.376 413.574 247.296 412.039 249.216 412.039H397.056C399.36 412.039 400.896 413.958 400.896 415.878C400.512 418.181 398.976 419.716 396.672 419.716Z" fill="#FFFAEE"/>
<path d="M414.336 402.827H249.216C246.912 402.827 245.376 400.908 245.376 398.988C245.376 396.685 247.296 395.15 249.216 395.15H414.336C416.64 395.15 418.176 397.069 418.176 398.988C418.176 401.291 416.256 402.827 414.336 402.827Z" fill="#FFFAEE"/>
<path d="M428.928 386.321H249.216C246.912 386.321 245.376 384.402 245.376 382.483C245.376 380.18 247.296 378.645 249.216 378.645H429.312C431.616 378.645 433.152 380.564 433.152 382.483C432.768 384.402 431.232 386.321 428.928 386.321Z" fill="#FFFAEE"/>
<path d="M439.68 369.432H249.216C246.912 369.432 245.376 367.513 245.376 365.594C245.376 363.291 247.296 361.755 249.216 361.755H439.68C441.984 361.755 443.52 363.675 443.52 365.594C443.52 367.513 441.6 369.432 439.68 369.432Z" fill="#FFFAEE"/>
<path d="M449.28 352.543H249.216C246.912 352.543 245.376 350.623 245.376 348.704C245.376 346.401 247.296 344.866 249.216 344.866H449.28C451.584 344.866 453.12 346.785 453.12 348.704C453.12 350.623 451.2 352.543 449.28 352.543Z" fill="#FFFAEE"/>
<path d="M457.728 335.654H249.216C246.912 335.654 245.376 333.734 245.376 331.815C245.376 329.896 247.296 327.977 249.216 327.977H457.728C460.032 327.977 461.568 329.896 461.568 331.815C461.568 333.734 460.032 335.654 457.728 335.654Z" fill="#FFFAEE"/>
<path d="M465.024 318.764H249.216C246.912 318.764 245.376 316.845 245.376 314.926C245.376 312.623 247.296 311.087 249.216 311.087H465.024C467.328 311.087 468.864 313.007 468.864 314.926C468.864 317.229 466.944 318.764 465.024 318.764Z" fill="#FFFAEE"/>
<path d="M470.016 302.259H249.216C246.912 302.259 245.376 300.34 245.376 298.421C245.376 296.501 247.296 294.582 249.216 294.582H470.016C472.32 294.582 473.856 296.501 473.856 298.421C473.856 300.34 472.32 302.259 470.016 302.259Z" fill="#FFFAEE"/>
<path d="M470.016 285.37H249.216C246.912 285.37 245.376 283.451 245.376 281.531C245.376 279.612 247.296 277.693 249.216 277.693H470.016C472.32 277.693 473.856 279.612 473.856 281.531C473.856 283.451 472.32 285.37 470.016 285.37Z" fill="#FFFAEE"/>
<path d="M475.776 268.481H249.216C246.912 268.481 245.376 266.561 245.376 264.642C245.376 262.339 247.296 260.804 249.216 260.804H476.16C478.464 260.804 480 262.723 480 264.642C480 266.945 478.08 268.481 475.776 268.481Z" fill="#FFFAEE"/>
<path d="M475.776 251.591H249.216C246.912 251.591 245.376 249.672 245.376 247.753C245.376 245.833 247.296 243.914 249.216 243.914H476.16C478.464 243.914 480 245.833 480 247.753C480 249.672 478.08 251.591 475.776 251.591Z" fill="#FFFAEE"/>
<path d="M475.776 235.086H249.216C246.912 235.086 245.376 233.166 245.376 231.247C245.376 229.328 247.296 227.409 249.216 227.409H476.16C478.464 227.409 480 229.328 480 231.247C480 233.166 478.08 235.086 475.776 235.086Z" fill="#FFFAEE"/>
<path d="M475.776 218.196H249.216C246.912 218.196 245.376 216.277 245.376 214.358C245.376 212.439 247.296 210.52 249.216 210.52H476.16C478.464 210.52 480 212.439 480 214.358C480 216.277 478.08 218.196 475.776 218.196Z" fill="#FFFAEE"/>
<path d="M470.016 201.307H249.216C246.912 201.307 245.376 199.388 245.376 197.469C245.376 195.55 247.296 193.63 249.216 193.63H470.016C472.32 193.63 473.856 195.55 473.856 197.469C473.856 199.388 472.32 201.307 470.016 201.307Z" fill="#FFFAEE"/>
<path d="M470.016 184.418H249.216C246.912 184.418 245.376 182.499 245.376 180.58C245.376 178.66 247.296 176.741 249.216 176.741H470.016C472.32 176.741 473.856 178.66 473.856 180.58C473.856 182.499 472.32 184.418 470.016 184.418Z" fill="#FFFAEE"/>
<path d="M465.024 167.913H249.216C246.912 167.913 245.376 165.994 245.376 164.074C245.376 161.771 247.296 160.236 249.216 160.236H465.024C467.328 160.236 468.864 162.155 468.864 164.074C468.864 165.994 466.944 167.913 465.024 167.913Z" fill="#FFFAEE"/>
<path d="M457.728 151.023H249.216C246.912 151.023 245.376 149.104 245.376 147.185C245.376 145.265 247.296 143.346 249.216 143.346H457.728C460.032 143.346 461.568 145.265 461.568 147.185C461.568 149.104 460.032 151.023 457.728 151.023Z" fill="#FFFAEE"/>
<path d="M449.28 134.134H249.216C246.912 134.134 245.376 132.215 245.376 130.296C245.376 127.992 247.296 126.457 249.216 126.457H449.28C451.584 126.457 453.12 128.376 453.12 130.296C453.12 132.599 451.2 134.134 449.28 134.134Z" fill="#FFFAEE"/>
<path d="M439.68 117.245H249.216C246.912 117.245 245.376 115.326 245.376 113.406C245.376 111.103 247.296 109.568 249.216 109.568H439.68C441.984 109.568 443.52 111.487 443.52 113.406C443.52 115.709 441.6 117.245 439.68 117.245Z" fill="#FFFAEE"/>
<path d="M428.928 100.739H249.216C246.912 100.739 245.376 98.8202 245.376 96.901C245.376 94.5979 247.296 93.0625 249.216 93.0625H429.312C431.616 93.0625 433.152 94.9817 433.152 96.901C432.768 98.8202 431.232 100.739 428.928 100.739Z" fill="#FFFAEE"/>
<path d="M414.336 83.8503H249.216C246.912 83.8503 245.376 81.931 245.376 80.0118C245.376 78.0926 247.296 76.1733 249.216 76.1733H414.336C416.64 76.1733 418.176 78.0926 418.176 80.0118C418.176 81.931 416.256 83.8503 414.336 83.8503Z" fill="#FFFAEE"/>
<path d="M396.672 66.9606H249.216C246.912 66.9606 245.376 65.0414 245.376 63.1222C245.376 60.8191 247.296 59.2837 249.216 59.2837H397.056C399.36 59.2837 400.896 61.2029 400.896 63.1222C400.512 65.4252 398.976 66.9606 396.672 66.9606Z" fill="#FFFAEE"/>
<path d="M376.704 50.0715H249.216C246.912 50.0715 245.376 48.1522 245.376 46.233C245.376 44.3138 247.296 42.3945 249.216 42.3945H376.704C379.008 42.3945 380.544 44.3138 380.544 46.233C380.544 48.1522 379.008 50.0715 376.704 50.0715Z" fill="#FFFAEE"/>
<path d="M347.904 33.5661H249.216C246.912 33.5661 245.376 31.6469 245.376 29.7276C245.376 27.4245 247.296 25.8892 249.216 25.8892H348.288C350.592 25.8892 352.128 27.8084 352.128 29.7276C351.744 31.6469 350.208 33.5661 347.904 33.5661Z" fill="#FFFAEE"/>
<path d="M305.664 16.6769H249.216C246.912 16.6769 245.376 14.7577 245.376 12.8385C245.376 10.9192 247.296 9 249.216 9H305.664C307.968 9 309.504 10.9192 309.504 12.8385C309.504 14.7577 307.584 16.6769 305.664 16.6769Z" fill="#FFFAEE"/>
</svg>
