<svg width="484" height="519" viewBox="0 0 484 519" fill="none" xmlns="http://www.w3.org/2000/svg">
<path d="M241.8 517C312.891 517 370.522 459.312 370.522 388.15C370.522 316.987 312.891 259.299 241.8 259.299C170.709 259.299 113.078 316.987 113.078 388.15C113.078 459.312 170.709 517 241.8 517Z" stroke="#FFFAEE" stroke-width="4" stroke-miterlimit="10"/>
<path d="M241.8 259.701C312.891 259.701 370.522 202.012 370.522 130.85C370.522 59.6883 312.891 2 241.8 2C170.709 2 113.078 59.6883 113.078 130.85C113.078 202.012 170.709 259.701 241.8 259.701Z" stroke="#FFFAEE" stroke-width="4" stroke-miterlimit="10"/>
<path d="M353.278 323.925C424.369 323.925 482 266.237 482 195.075C482 123.913 424.369 66.2246 353.278 66.2246C282.187 66.2246 224.557 123.913 224.557 195.075C224.557 266.237 282.187 323.925 353.278 323.925Z" stroke="#FFFAEE" stroke-width="4" stroke-miterlimit="10"/>
<path d="M130.722 452.775C201.813 452.775 259.444 395.087 259.444 323.925C259.444 252.763 201.813 195.075 130.722 195.075C59.6306 195.075 2 252.763 2 323.925C2 395.087 59.6306 452.775 130.722 452.775Z" stroke="#FFFAEE" stroke-width="4" stroke-miterlimit="10"/>
<path d="M130.722 323.925C201.813 323.925 259.444 266.237 259.444 195.075C259.444 123.913 201.813 66.2246 130.722 66.2246C59.6306 66.2246 2 123.913 2 195.075C2 266.237 59.6306 323.925 130.722 323.925Z" stroke="#FFFAEE" stroke-width="4" stroke-miterlimit="10"/>
<path d="M353.278 452.775C424.369 452.775 482 395.087 482 323.925C482 252.763 424.369 195.075 353.278 195.075C282.187 195.075 224.557 252.763 224.557 323.925C224.557 395.087 282.187 452.775 353.278 452.775Z" stroke="#FFFAEE" stroke-width="4" stroke-miterlimit="10"/>
</svg>
