<svg width="480" height="480" viewBox="0 0 480 480" fill="none" xmlns="http://www.w3.org/2000/svg">
<path d="M479.112 335.501L409.418 193.765C405.862 186.452 412.618 178.442 420.441 180.183L454.577 187.845C459.911 188.89 465.244 185.755 466.311 180.532L476.623 137.001C477.69 131.777 474.49 126.554 469.156 125.509L312.344 90.336C304.166 88.5948 302.032 78.4956 308.433 73.2719L335.813 52.0289C340.08 48.5465 340.791 42.6263 337.235 38.4473L308.788 3.62273C305.233 -0.556226 299.188 -1.25272 294.921 2.22974L169.4 100.435C163 105.659 153.399 101.132 153.399 92.7737V58.2974C153.399 53.0737 149.132 48.5465 143.443 48.5465H97.9283C92.5946 48.5465 87.972 52.7254 87.972 58.2974V215.705C87.972 223.714 78.3713 228.241 71.9708 223.366L44.591 202.123C40.324 198.641 34.2791 199.337 30.7233 203.516L2.2767 238.341C-1.27912 242.52 -0.567923 248.44 3.69906 251.922L129.22 350.128C135.62 355.351 133.486 365.45 125.308 367.192L91.1722 374.853C85.8385 375.898 82.6383 381.121 83.705 386.345L94.0169 429.876C95.0836 435.1 100.417 438.234 105.751 437.189L262.563 402.016C270.741 400.275 277.142 408.285 273.586 415.598L258.296 446.592C255.807 451.467 257.94 457.039 262.918 459.477L304.166 478.979C309.144 481.416 314.833 479.327 317.322 474.451L387.016 332.715C390.572 325.402 401.24 325.402 404.796 332.715L420.086 363.709C422.575 368.585 428.264 370.674 433.242 368.236L474.49 348.735C479.468 345.949 481.246 340.377 479.112 335.501ZM332.968 294.408L295.276 371.371C291.365 379.728 278.92 378.335 276.786 369.281L270.741 344.207C269.674 338.984 264.341 335.849 259.007 336.894L174.023 356.048C164.778 358.137 158.377 347.69 164.067 340.725L180.423 320.527C183.979 316.348 183.268 310.427 179.001 306.945L110.729 253.663C103.262 248.091 107.529 236.251 116.774 236.251H143.087C148.421 236.251 153.043 232.072 153.043 226.5V141.18C153.043 132.126 164.778 127.947 170.823 135.26L187.535 155.11C191.091 159.289 197.136 159.985 201.403 156.503L269.319 103.569C276.786 97.9974 287.098 104.266 284.964 113.32L278.92 138.394C277.853 143.618 281.053 148.841 286.387 149.886L371.371 169.04C380.616 171.129 382.038 183.318 373.504 187.148L349.68 198.292C344.702 200.73 342.569 206.302 345.058 211.177L382.749 288.14C386.661 296.498 378.127 305.204 369.593 301.025L345.769 289.881C341.146 287.792 335.457 289.533 332.968 294.408Z" fill="#FFFAEE"/>
</svg>
