<svg width="486" height="486" viewBox="0 0 486 486" fill="none" xmlns="http://www.w3.org/2000/svg">
<path d="M93.9852 148.521C100.217 67.2002 164.373 3 242.826 3C325.312 3 392.034 73.8147 392.034 161.361C392.034 217.001 365.272 265.637 324.579 294.041M220.463 465.631C151.909 502.984 66.4899 478.471 25.4303 407.656C-18.1956 332.95 3.80065 235.288 74.1886 189.375C120.014 159.415 175.005 159.026 219.73 182.761M262.989 217.779C269.222 224.783 274.721 232.564 279.487 241.124C315.047 302.601 306.615 379.252 263.356 430.224M415.863 191.321C479.652 236.066 502.015 325.947 465.355 398.707C426.128 475.747 335.577 504.929 262.989 463.296C216.797 436.838 188.936 388.201 184.903 336.452M190.035 279.256C192.968 268.75 197.001 258.634 201.767 248.906C234.028 185.095 301.85 154.357 365.272 169.142M274.721 316.608C264.456 318.943 253.824 320.11 243.193 320.11C175.371 320.11 118.181 272.252 99.8506 206.106" stroke="#FFFAEE" stroke-width="5.5" stroke-linecap="round" stroke-linejoin="round"/>
</svg>
