<svg width="480" height="480" viewBox="0 0 480 480" fill="none" xmlns="http://www.w3.org/2000/svg">
<path d="M239.999 0C107.52 0 0 107.52 0 240C0 372.48 107.52 480 239.999 480C372.479 480 479.999 372.48 479.999 240C480.383 107.904 372.479 0 239.999 0ZM350.591 350.592C289.535 350.592 240.383 301.056 240.383 240.384C240.383 179.712 190.847 130.176 130.176 130.176C69.5037 130.176 19.968 179.712 19.968 240.384C19.968 247.68 20.352 254.976 21.12 261.888C20.736 258.432 20.3519 254.976 20.3519 251.52C20.3519 247.68 19.968 243.84 19.968 240C19.968 122.112 112.512 25.7279 229.248 19.5839C233.088 19.1999 236.928 19.2 240.768 19.2C244.608 19.2 248.448 19.1999 252.288 19.5839C256.512 19.9679 260.735 20.352 264.959 20.736C271.103 21.504 277.247 22.2719 283.391 23.4239C284.927 23.8079 286.847 24.192 288.383 24.576C387.071 46.464 461.183 134.4 461.183 240C461.183 241.92 461.183 243.84 461.183 245.76C457.727 304.128 409.343 350.592 350.591 350.592Z" fill="#FFFAEE"/>
</svg>
