<svg width="480" height="480" viewBox="0 0 480 480" fill="none" xmlns="http://www.w3.org/2000/svg">
<path d="M240 480C107.52 480 0 372.48 0 240C0 107.52 107.52 0 240 0C372.48 0 480 107.52 480 240C480 372.48 372.096 480 240 480ZM240 27.264C122.496 27.264 27.264 122.88 27.264 240C27.264 357.12 122.88 452.736 240 452.736C357.12 452.736 452.736 357.12 452.736 240C452.736 122.88 357.12 27.264 240 27.264Z" fill="#FFFAEE"/>
<path d="M253.44 13.824H226.176V466.56H253.44V13.824Z" fill="#FFFAEE"/>
<path d="M232.533 245.488L50.8691 363.414L65.7144 386.283L247.378 268.357L232.533 245.488Z" fill="#FFFAEE"/>
<path d="M247.339 245.097L232.494 267.966L414.158 385.892L429.003 363.023L247.339 245.097Z" fill="#FFFAEE"/>
</svg>
