<svg width="480" height="480" viewBox="0 0 480 480" fill="none" xmlns="http://www.w3.org/2000/svg">
<path d="M239.465 154.996C282.231 154.996 316.901 120.299 316.901 77.4982C316.901 34.6971 282.231 0 239.465 0C196.698 0 162.028 34.6971 162.028 77.4982C162.028 120.299 196.698 154.996 239.465 154.996Z" fill="#FFFAEE"/>
<path d="M239.465 480C282.231 480 316.901 445.303 316.901 402.502C316.901 359.701 282.231 325.004 239.465 325.004C196.698 325.004 162.028 359.701 162.028 402.502C162.028 445.303 196.698 480 239.465 480Z" fill="#FFFAEE"/>
<path d="M251.673 77.4982H227.256V402.502H251.673V77.4982Z" fill="#FFFAEE"/>
<path d="M374.02 147.949L92.7916 310.451L105 331.613L386.228 169.111L374.02 147.949Z" fill="#FFFAEE"/>
<path d="M105.018 152.872L92.81 174.034L374.038 336.536L386.247 315.374L105.018 152.872Z" fill="#FFFAEE"/>
<path d="M98.8932 398.662C141.66 398.662 176.33 363.965 176.33 321.164C176.33 278.363 141.66 243.665 98.8932 243.665C56.1264 243.665 21.457 278.363 21.457 321.164C21.457 363.965 56.1264 398.662 98.8932 398.662Z" fill="#FFFAEE"/>
<path d="M380.385 236.334C423.152 236.334 457.821 201.637 457.821 158.836C457.821 116.035 423.152 81.338 380.385 81.338C337.618 81.338 302.949 116.035 302.949 158.836C302.949 201.637 337.618 236.334 380.385 236.334Z" fill="#FFFAEE"/>
<path d="M380.385 398.662C423.152 398.662 457.821 363.965 457.821 321.164C457.821 278.363 423.152 243.665 380.385 243.665C337.618 243.665 302.949 278.363 302.949 321.164C302.949 363.965 337.618 398.662 380.385 398.662Z" fill="#FFFAEE"/>
<path d="M98.8932 236.334C141.66 236.334 176.33 201.637 176.33 158.836C176.33 116.035 141.66 81.338 98.8932 81.338C56.1264 81.338 21.457 116.035 21.457 158.836C21.457 201.637 56.1264 236.334 98.8932 236.334Z" fill="#FFFAEE"/>
</svg>
