<svg width="480" height="480" viewBox="0 0 480 480" fill="none" xmlns="http://www.w3.org/2000/svg">
<g clip-path="url(#clip0_19918_24573)">
<path d="M255.569 0H224.824V119.904H255.569V0Z" fill="#FFFAEE"/>
<path d="M255.569 360.096H224.824V480H255.569V360.096Z" fill="#FFFAEE"/>
<path d="M119.904 224.82H0V255.564H119.904V224.82Z" fill="#FFFAEE"/>
<path d="M480 224.82H360.096V255.564H480V224.82Z" fill="#FFFAEE"/>
<path d="M81.0618 59.3865L59.3223 81.126L144.378 166.182L166.118 144.442L81.0618 59.3865Z" fill="#FFFAEE"/>
<path d="M335.855 314.097L314.115 335.837L398.899 420.621L420.639 398.882L335.855 314.097Z" fill="#FFFAEE"/>
<path d="M144.421 314.005L59.3535 399.049L81.09 420.791L166.158 335.748L144.421 314.005Z" fill="#FFFAEE"/>
<path d="M398.937 59.4716L314.141 144.244L335.877 165.986L420.673 81.2141L398.937 59.4716Z" fill="#FFFAEE"/>
<path d="M185.405 67.8991L157 79.665L191.415 162.749L219.82 150.983L185.405 67.8991Z" fill="#FFFAEE"/>
<path d="M288.719 317.239L260.314 329.005L294.73 412.09L323.135 400.324L288.719 317.239Z" fill="#FFFAEE"/>
<path d="M150.914 260.23L67.8301 294.637L79.593 323.042L162.677 288.635L150.914 260.23Z" fill="#FFFAEE"/>
<path d="M400.352 156.94L317.268 191.347L329.03 219.752L412.115 185.345L400.352 156.94Z" fill="#FFFAEE"/>
<path d="M79.6253 156.759L67.8594 185.164L150.944 219.579L162.71 191.174L79.6253 156.759Z" fill="#FFFAEE"/>
<path d="M329.159 260.362L317.393 288.767L400.477 323.182L412.243 294.778L329.159 260.362Z" fill="#FFFAEE"/>
<path d="M191.238 317.273L156.822 400.357L185.227 412.123L219.643 329.039L191.238 317.273Z" fill="#FFFAEE"/>
<path d="M294.835 67.7397L260.42 150.824L288.825 162.59L323.24 79.5057L294.835 67.7397Z" fill="#FFFAEE"/>
</g>
<defs>
<clipPath id="clip0_19918_24573">
<rect width="480" height="480" fill="white"/>
</clipPath>
</defs>
</svg>
