<svg width="480" height="480" viewBox="0 0 480 480" fill="none" xmlns="http://www.w3.org/2000/svg">
<g clip-path="url(#clip0_19918_24704)">
<path d="M480.003 228.297H434.727V251.319H480.003V228.297Z" fill="#FFFAEE"/>
<path d="M45.276 228.297H0V251.319H45.276V228.297Z" fill="#FFFAEE"/>
<path d="M251.699 0.384277H228.678V45.6601H251.699V0.384277Z" fill="#FFFAEE"/>
<path d="M251.699 434.724H228.678V479.999H251.699V434.724Z" fill="#FFFAEE"/>
<path d="M78.3801 62.2888L62.1016 78.5674L94.1161 110.582L110.395 94.3034L78.3801 62.2888Z" fill="#FFFAEE"/>
<path d="M385.777 369.468L369.498 385.747L401.513 417.761L417.791 401.482L385.777 369.468Z" fill="#FFFAEE"/>
<path d="M94.1608 369.421L62.1465 401.435L78.425 417.714L110.439 385.699L94.1608 369.421Z" fill="#FFFAEE"/>
<path d="M401.325 62.0204L369.311 94.0347L385.589 110.313L417.603 78.2989L401.325 62.0204Z" fill="#FFFAEE"/>
<path d="M268.586 244.029C269.353 237.122 268.202 230.6 264.749 225.228C256.692 211.415 251.32 196.067 251.32 179.952V0H228.298V178.801C228.298 194.532 224.462 210.264 215.637 223.693C212.567 228.297 210.648 233.669 210.648 239.808C210.648 257.074 225.612 270.504 243.262 268.585C256.308 267.434 267.051 257.074 268.586 244.029Z" fill="#FFFAEE"/>
</g>
<defs>
<clipPath id="clip0_19918_24704">
<rect width="480" height="480" fill="white"/>
</clipPath>
</defs>
</svg>
