<svg width="480" height="480" viewBox="0 0 480 480" fill="none" xmlns="http://www.w3.org/2000/svg">
<g clip-path="url(#clip0_19918_24700)">
<path d="M287.076 422.738H192.921C184.082 422.738 177.164 429.655 177.164 438.494V464.243C177.164 473.082 184.082 480 192.921 480H287.076C295.915 480 302.833 473.082 302.833 464.243V438.494C302.833 430.04 295.915 422.738 287.076 422.738Z" fill="#FFFAEE"/>
<path d="M287.076 0H192.921C184.082 0 177.164 6.91756 177.164 15.7566V41.5053C177.164 50.3443 184.082 57.2619 192.921 57.2619H287.076C295.915 57.2619 302.833 50.3443 302.833 41.5053V15.7566C302.833 6.91756 295.915 0 287.076 0Z" fill="#FFFAEE"/>
<path d="M402.757 335.885L336.272 402.37C330.123 408.519 330.123 418.511 336.272 424.66L354.718 443.106C360.867 449.255 370.859 449.255 377.008 443.106L443.493 376.621C449.642 370.472 449.642 360.48 443.493 354.331L425.047 335.885C418.898 329.736 408.906 329.736 402.757 335.885Z" fill="#FFFAEE"/>
<path d="M103.386 36.8929L36.9008 103.378C30.7518 109.527 30.7518 119.519 36.9008 125.668L55.3472 144.115C61.4962 150.264 71.4884 150.264 77.6373 144.115L144.123 77.6295C150.272 71.4806 150.272 61.4887 144.123 55.3398L125.676 36.8929C119.527 30.744 109.535 30.744 103.386 36.8929Z" fill="#FFFAEE"/>
<path d="M422.74 192.923V287.078C422.74 295.917 429.658 302.835 438.497 302.835H464.245C473.084 302.835 480.002 295.917 480.002 287.078V192.923C480.002 184.084 473.084 177.166 464.245 177.166H438.497C430.042 177.166 422.74 184.084 422.74 192.923Z" fill="#FFFAEE"/>
<path d="M0 192.923V287.078C0 295.917 6.91745 302.835 15.7565 302.835H41.505C50.344 302.835 57.2615 295.917 57.2615 287.078V192.923C57.2615 184.084 50.344 177.166 41.505 177.166H15.7565C6.91745 177.166 0 184.084 0 192.923Z" fill="#FFFAEE"/>
<path d="M335.881 77.2458L402.367 143.731C408.516 149.88 418.508 149.88 424.657 143.731L443.103 125.284C449.252 119.135 449.252 109.143 443.103 102.994L376.618 36.5092C370.469 30.3602 360.477 30.3602 354.328 36.5092L335.881 54.956C329.732 61.1049 329.732 71.0968 335.881 77.2458Z" fill="#FFFAEE"/>
<path d="M36.9008 376.621L103.386 443.106C109.535 449.255 119.527 449.255 125.676 443.106L144.123 424.66C150.272 418.511 150.272 408.519 144.123 402.37L77.6373 335.885C71.4884 329.736 61.4962 329.736 55.3472 335.885L36.9008 354.331C30.7518 360.48 30.7518 370.472 36.9008 376.621Z" fill="#FFFAEE"/>
</g>
<defs>
<clipPath id="clip0_19918_24700">
<rect width="480" height="480" fill="white"/>
</clipPath>
</defs>
</svg>
