<svg width="480" height="480" viewBox="0 0 480 480" fill="none" xmlns="http://www.w3.org/2000/svg">
<g clip-path="url(#clip0_19918_24696)">
<path d="M459.136 197.627L477.443 167.411C482.935 158.728 479.274 147.267 469.388 143.099C426.549 124.344 378.219 120.523 332.085 132.332C313.778 136.847 296.569 143.793 280.825 152.824C268.742 159.423 254.097 149.698 256.66 136.847C262.518 107.673 279.727 80.5819 306.089 61.4795C313.412 56.2698 315.974 46.5449 311.214 38.904L292.907 8.68753C287.415 0.0046322 275.333 -2.77392 266.545 3.13046C211.258 40.6406 180.502 101.074 181.234 162.896C181.234 176.094 165.124 183.735 154.506 175.052C130.707 155.602 114.596 127.817 110.203 96.9058C109.104 88.2229 101.415 81.2766 91.8957 81.2766H54.915C44.2968 81.2766 35.5094 89.9594 36.6078 100.032C43.1984 164.285 83.1082 219.508 139.86 250.072C152.309 256.671 150.478 273.69 137.297 278.205C134.368 279.247 131.439 279.941 128.51 280.636C99.9508 287.93 70.6591 285.846 43.9307 275.079C35.5094 271.606 25.2577 274.732 20.864 282.372L2.5569 312.589C-2.93523 321.272 0.72601 332.733 10.6118 336.901C37.3402 348.363 65.8993 354.267 94.8245 354.267C112.399 354.267 130.34 352.183 147.915 347.668C166.222 343.153 183.431 336.207 199.175 327.176C211.258 320.577 225.903 330.302 223.34 343.153C217.482 372.327 200.273 399.418 173.911 418.52C166.588 423.73 164.026 433.455 168.786 441.096L187.093 471.312C192.585 479.995 204.667 482.774 213.455 476.869C268.742 439.359 299.498 378.926 298.766 317.104C298.766 303.906 314.876 296.265 325.494 304.948C349.293 324.398 365.404 352.183 369.797 383.094C370.896 391.777 378.585 398.723 388.104 398.723H425.085C435.703 398.723 444.491 390.04 443.392 379.968C436.802 315.715 396.892 260.492 340.14 229.928C327.691 223.329 329.522 206.31 342.703 201.795C345.632 200.753 348.561 200.059 351.49 199.364C380.049 192.07 409.341 194.154 436.069 204.921C444.491 208.394 454.376 205.268 459.136 197.627Z" fill="#FFFAEE"/>
</g>
<defs>
<clipPath id="clip0_19918_24696">
<rect width="480" height="480" fill="white"/>
</clipPath>
</defs>
</svg>
