<svg width="480" height="480" viewBox="0 0 480 480" fill="none" xmlns="http://www.w3.org/2000/svg">
<path d="M199.886 0.257674C96.617 14.8457 14.8466 96.2314 0.642281 199.499C-1.66112 216.774 11.7754 232.13 29.4347 232.13H204.109C220.233 232.13 232.902 219.078 232.902 203.338V28.666C232.518 11.3907 217.161 -2.04569 199.886 0.257674Z" fill="#FFFAEE"/>
<path d="M0.257678 280.117C14.8459 383.385 96.2327 465.154 199.502 479.358C216.777 481.662 232.133 468.225 232.133 450.566V275.894C232.133 259.771 219.081 247.102 203.341 247.102H28.6663C11.3909 247.486 -2.04572 262.842 0.257678 280.117Z" fill="#FFFAEE"/>
<path d="M280.121 479.742C383.39 465.154 465.16 383.769 479.365 280.501C481.668 263.226 468.232 247.87 450.572 247.87H275.898C259.774 247.87 247.105 260.922 247.105 276.662V451.334C247.489 468.609 262.845 482.046 280.121 479.742Z" fill="#FFFAEE"/>
<path d="M247.489 29.05V203.722C247.489 219.846 260.542 232.514 276.282 232.514H450.956C468.231 232.514 482.052 217.158 479.748 199.883C465.16 96.6154 383.773 14.846 280.504 0.641883C262.845 -2.04538 247.489 11.3908 247.489 29.05Z" fill="#FFFAEE"/>
</svg>
