<svg width="480" height="480" viewBox="0 0 480 480" fill="none" xmlns="http://www.w3.org/2000/svg">
<path d="M122.112 30.72V117.888H238.464V0C196.224 0 156.288 11.52 122.112 30.72Z" fill="#FFFAEE"/>
<path d="M0.384023 238.08H118.272V121.728H31.104C11.904 155.904 0.384023 195.84 0.384023 238.08Z" fill="#FFFAEE"/>
<path d="M238.464 121.728H122.112V238.08H238.464V121.728Z" fill="#FFFAEE"/>
<path d="M238.464 241.92H122.112V358.272H238.464V241.92Z" fill="#FFFAEE"/>
<path d="M362.112 117.888H446.976C426.24 82.9439 397.056 53.7599 362.112 33.0239V117.888Z" fill="#FFFAEE"/>
<path d="M242.304 0V117.888H358.656V30.72C324.096 11.52 284.544 0 242.304 0Z" fill="#FFFAEE"/>
<path d="M118.272 241.92H0.384023C0.768023 284.16 11.904 323.712 31.488 358.272H118.272V241.92Z" fill="#FFFAEE"/>
<path d="M358.656 121.728H242.304V238.08H358.656V121.728Z" fill="#FFFAEE"/>
<path d="M238.464 480V361.728H122.112V448.896C156.288 468.096 196.224 479.616 238.464 480Z" fill="#FFFAEE"/>
<path d="M358.272 361.728H241.92V479.616C284.16 479.232 323.712 468.096 358.272 448.512V361.728Z" fill="#FFFAEE"/>
<path d="M118.272 117.888V33.024C83.328 53.76 54.144 82.944 33.408 117.888H118.272Z" fill="#FFFAEE"/>
<path d="M118.272 361.728H33.408C54.144 396.672 83.328 425.856 118.272 446.592V361.728Z" fill="#FFFAEE"/>
<path d="M362.112 361.728V446.592C397.056 425.856 426.24 396.672 446.976 361.728H362.112Z" fill="#FFFAEE"/>
<path d="M358.656 241.92H242.304V358.272H358.656V241.92Z" fill="#FFFAEE"/>
<path d="M480 241.92H362.112V357.888H449.28C468.48 323.712 480 284.16 480 241.92Z" fill="#FFFAEE"/>
<path d="M362.112 121.728V238.08H480C479.616 195.84 468.48 156.288 448.896 121.728H362.112Z" fill="#FFFAEE"/>
</svg>
