<svg width="480" height="480" viewBox="0 0 480 480" fill="none" xmlns="http://www.w3.org/2000/svg">
<path d="M243.731 0.355469H236.625V175.87H243.731V0.355469Z" fill="#FFFAEE"/>
<path d="M243.731 304.486H236.625V480H243.731V304.486Z" fill="#FFFAEE"/>
<path d="M175.869 236.625H0.355469V243.731H175.869V236.625Z" fill="#FFFAEE"/>
<path d="M480.001 236.625H304.486V243.731H480.001V236.625Z" fill="#FFFAEE"/>
<path d="M240.178 404.678C149.223 404.678 75.3221 330.778 75.3221 239.823C75.3221 148.868 149.223 74.9669 240.178 74.9669C331.133 74.9669 405.033 148.868 405.033 239.823C405.033 330.778 330.777 404.678 240.178 404.678ZM240.178 82.4281C153.131 82.4281 82.4279 153.131 82.4279 240.178C82.4279 327.225 153.131 397.928 240.178 397.928C327.224 397.928 397.927 327.225 397.927 240.178C397.927 153.131 326.869 82.4281 240.178 82.4281Z" fill="#FFFAEE"/>
<path d="M243.73 236.625H304.485C302.709 203.938 276.418 177.646 243.731 175.87L243.73 236.625Z" fill="#FFFAEE"/>
<path d="M236.624 236.625L236.625 175.87C203.938 177.646 177.646 203.938 175.869 236.625L236.624 236.625Z" fill="#FFFAEE"/>
<path d="M236.624 243.731L175.869 243.731C177.646 276.417 203.938 302.709 236.625 304.486L236.624 243.731Z" fill="#FFFAEE"/>
<path d="M243.73 243.731L243.731 304.486C276.418 302.709 302.709 276.418 304.485 243.731H243.73Z" fill="#FFFAEE"/>
</svg>
