<svg width="480" height="480" viewBox="0 0 480 480" fill="none" xmlns="http://www.w3.org/2000/svg">
<path d="M201.027 159.344H128.403C119.565 159.344 112.264 152.038 112.264 143.193C112.264 134.348 119.565 127.041 128.403 127.041H201.027C209.865 127.041 217.166 134.348 217.166 143.193C217.166 152.038 209.865 159.344 201.027 159.344Z" fill="#FFFAEE"/>
<path d="M75.7596 233.181L114.569 171.65C119.18 163.959 129.171 161.652 136.856 166.651C144.541 171.266 146.847 181.265 141.851 188.956L103.042 250.486C98.4307 258.178 88.44 260.485 80.7549 255.486C73.454 250.871 71.1485 240.872 75.7596 233.181Z" fill="#FFFAEE"/>
<path d="M24.2697 250.487L33.4918 178.188C34.6446 169.343 42.714 163.19 51.5519 164.344C60.3897 165.498 66.5377 173.574 65.3849 182.419L56.1628 254.717C55.0101 263.562 46.9408 269.715 38.1029 268.561C29.2651 267.408 23.117 259.332 24.2697 250.487Z" fill="#FFFAEE"/>
<path d="M89.9772 312.786L17.7372 319.324C8.89931 320.093 0.82993 313.556 0.0614199 304.711C-0.70709 295.866 5.82531 287.79 14.6632 287.021L86.903 280.483C95.7409 279.714 103.81 286.251 104.579 295.096C105.347 303.941 98.815 312.017 89.9772 312.786Z" fill="#FFFAEE"/>
<path d="M63.8481 337.783L113.801 390.468C119.949 397.006 119.565 407.389 113.033 413.158C106.5 419.311 96.1255 418.926 90.3617 412.389L40.4085 359.703C34.2605 353.165 34.6448 342.782 41.1771 337.014C47.7094 330.861 57.7 331.245 63.8481 337.783Z" fill="#FFFAEE"/>
<path d="M165.676 269.715L144.542 339.321C141.852 347.782 133.014 352.781 124.176 350.089C115.723 347.397 110.727 338.552 113.417 329.707L134.551 260.101C137.241 251.64 146.079 246.641 154.917 249.333C163.755 252.025 168.366 261.254 165.676 269.715Z" fill="#FFFAEE"/>
<path d="M177.972 370.856L147.231 437.001C143.389 445.077 133.782 448.538 125.713 444.692C117.644 440.847 114.185 431.233 118.028 423.157L148.768 357.011C152.611 348.936 162.217 345.474 170.286 349.32C178.356 353.166 181.814 362.78 177.972 370.856Z" fill="#FFFAEE"/>
<path d="M193.726 382.393L265.581 392.776C274.419 393.93 280.567 402.39 279.415 411.235C278.262 420.08 269.808 426.233 260.97 425.079L189.115 414.696C180.277 413.542 174.129 405.082 175.281 396.237C176.818 387.007 184.888 380.855 193.726 382.393Z" fill="#FFFAEE"/>
<path d="M184.12 445.077L255.207 429.31C264.045 427.387 272.498 432.771 274.42 441.616C276.341 450.461 270.961 458.921 262.123 460.844L191.036 476.611C182.198 478.534 173.745 473.15 171.824 464.305C169.902 455.46 175.282 447 184.12 445.077Z" fill="#FFFAEE"/>
<path d="M250.212 285.867L314.382 319.709C322.452 323.939 325.141 333.553 321.299 341.629C317.456 349.705 307.466 352.397 299.396 348.551L235.226 314.709C227.156 310.479 224.467 300.865 228.309 292.789C232.536 284.713 242.142 281.637 250.212 285.867Z" fill="#FFFAEE"/>
<path d="M361.645 311.248L383.932 380.47C386.622 388.93 382.011 398.16 373.557 400.852C365.104 403.544 355.882 398.929 353.192 390.468L330.905 321.246C328.215 312.786 332.826 303.556 341.28 300.865C349.734 298.173 358.571 302.403 361.645 311.248Z" fill="#FFFAEE"/>
<path d="M313.614 364.702L358.572 422.003C363.951 428.925 362.798 439.308 355.882 444.692C348.965 450.076 338.59 448.922 333.211 442L287.869 384.7C282.489 377.778 283.642 367.394 290.558 362.011C297.859 356.627 307.85 357.78 313.614 364.702Z" fill="#FFFAEE"/>
<path d="M328.6 104.352L400.071 117.042C408.909 118.58 414.673 127.041 413.136 135.886C411.599 144.731 403.145 150.499 394.307 148.961L322.836 136.27C313.998 134.732 308.234 126.272 309.771 117.427C311.693 108.582 320.146 102.813 328.6 104.352Z" fill="#FFFAEE"/>
<path d="M327.062 15.9014L379.705 65.8949C386.238 72.0479 386.622 82.4312 380.474 88.5842C374.326 95.1218 363.951 95.5065 357.803 89.3534L305.16 39.3599C298.628 33.2069 298.243 22.8235 304.391 16.6704C310.155 10.1328 320.53 9.74834 327.062 15.9014Z" fill="#FFFAEE"/>
<path d="M368.947 182.803L432.349 147.039C440.034 142.808 450.024 145.5 454.251 153.192C458.478 160.883 455.788 170.882 448.103 175.112L384.701 210.876C377.016 215.107 367.025 212.415 362.799 204.723C358.572 197.032 361.262 187.033 368.947 182.803Z" fill="#FFFAEE"/>
<path d="M368.178 292.404L392.386 223.952C395.46 215.491 404.682 211.261 413.135 213.953C421.589 217.03 425.816 226.259 423.126 234.72L398.918 303.172C395.844 311.633 386.622 315.863 378.168 313.171C369.715 310.479 365.488 300.865 368.178 292.404Z" fill="#FFFAEE"/>
<path d="M400.84 384.7L407.372 312.402C408.141 303.557 416.21 297.019 425.048 297.788C433.886 298.557 440.418 306.633 439.65 315.478L433.117 387.776C432.349 396.621 424.279 403.159 415.442 402.39C406.604 401.621 400.071 393.929 400.84 384.7Z" fill="#FFFAEE"/>
<path d="M448.103 283.944L432.348 212.799C430.427 203.954 435.807 195.494 444.645 193.571C453.482 191.648 461.936 197.032 463.857 205.877L479.612 277.022C481.533 285.867 476.154 294.327 467.316 296.25C458.862 298.173 450.024 292.789 448.103 283.944Z" fill="#FFFAEE"/>
<path d="M163.37 24.7468L171.439 97.0451C172.592 105.89 166.06 113.966 157.222 114.735C148.384 115.889 140.315 109.351 139.546 100.506L131.477 28.2078C130.324 19.3628 136.856 11.287 145.694 10.5179C154.532 9.3642 162.601 15.9017 163.37 24.7468Z" fill="#FFFAEE"/>
<path d="M33.4914 122.042L99.9674 92.4302C108.037 88.9691 117.643 92.4302 121.486 100.506C124.944 108.582 121.486 118.196 113.416 122.042L46.9403 151.653C38.871 155.114 29.2646 151.653 25.422 143.577C21.5795 135.501 25.422 125.503 33.4914 122.042Z" fill="#FFFAEE"/>
<path d="M220.24 241.257L277.109 196.263C284.026 190.879 294.401 192.033 299.78 198.955C305.16 205.877 304.007 216.26 297.091 221.644L240.221 266.638C233.304 272.022 222.929 270.869 217.55 263.946C212.17 257.024 213.323 246.641 220.24 241.257Z" fill="#FFFAEE"/>
<path d="M309.387 178.188L239.453 158.575C230.999 156.268 226.004 147.423 228.309 138.578C230.615 130.117 239.453 125.118 248.29 127.425L318.225 147.038C326.678 149.346 331.674 158.191 329.368 167.036C327.063 175.496 317.841 180.495 309.387 178.188Z" fill="#FFFAEE"/>
<path d="M352.423 195.494L349.733 268.177C349.349 277.022 342.048 283.944 332.826 283.559C323.988 283.175 317.071 275.868 317.456 266.638L320.146 193.956C320.53 185.111 327.831 178.188 337.053 178.573C345.506 179.342 352.423 186.649 352.423 195.494Z" fill="#FFFAEE"/>
<path d="M217.166 287.02L214.476 359.703C214.092 368.548 206.791 375.47 197.569 375.086C188.347 374.701 181.814 367.394 182.199 358.165L184.888 285.482C185.273 276.637 192.574 269.715 201.796 270.099C210.249 270.484 217.55 277.791 217.166 287.02Z" fill="#FFFAEE"/>
<path d="M199.874 3.21087L267.503 30.1305C275.956 33.5915 279.799 42.8211 276.725 51.2816C273.267 59.742 264.045 63.5877 255.591 60.5112L187.962 33.5916C179.509 30.1305 175.666 20.901 178.74 12.4405C182.198 3.98009 191.42 -0.250223 199.874 3.21087Z" fill="#FFFAEE"/>
<path d="M219.471 86.6615L290.174 69.356C299.012 67.4332 307.466 72.4326 309.771 81.2776C311.692 90.1226 306.697 98.583 297.859 100.89L227.156 118.196C218.319 120.119 209.865 115.119 207.559 106.274C205.638 97.8139 211.018 88.9689 219.471 86.6615Z" fill="#FFFAEE"/>
<path d="M160.296 196.263L230.999 178.958C239.837 177.035 248.29 182.034 250.596 190.879C252.517 199.724 247.522 208.185 238.684 210.492L167.981 227.797C159.143 229.72 150.69 224.721 148.384 215.876C146.463 207.415 151.842 198.57 160.296 196.263Z" fill="#FFFAEE"/>
</svg>
