<svg width="480" height="480" viewBox="0 0 480 480" fill="none" xmlns="http://www.w3.org/2000/svg">
<g clip-path="url(#clip0_19918_24569)">
<path d="M419.796 138.735L398.288 127.206C379.084 116.445 362.953 100.689 352.582 81.4732L341.06 59.952C297.275 -19.984 182.436 -19.984 138.652 59.952L127.129 81.4732C116.375 100.689 100.628 116.829 81.4243 127.206L59.916 138.735C-19.972 182.546 -19.972 297.454 59.916 341.265L81.4243 352.794C100.628 363.555 116.759 379.312 127.129 398.527L138.652 420.048C182.436 499.984 297.275 499.984 341.06 420.048L352.582 398.527C363.337 379.312 379.084 363.171 398.288 352.794L419.796 341.265C500.068 297.454 500.068 182.546 419.796 138.735ZM240.048 320.513C195.495 320.513 159.776 284.388 159.776 240.192C159.776 195.997 195.879 159.872 240.048 159.872C284.601 159.872 320.32 195.997 320.32 240.192C320.32 284.388 284.217 320.513 240.048 320.513Z" fill="#FFFAEE"/>
</g>
<defs>
<clipPath id="clip0_19918_24569">
<rect width="480" height="480" fill="white"/>
</clipPath>
</defs>
</svg>
