<svg width="480" height="480" viewBox="0 0 480 480" fill="none" xmlns="http://www.w3.org/2000/svg">
<g clip-path="url(#clip0_19918_24571)">
<path d="M240 0C107.52 0 0 107.52 0 240C0 372.48 107.52 480 240 480C372.48 480 480 372.48 480 240C480 107.52 372.864 0 240 0ZM153.984 397.44C114.816 397.44 82.944 365.568 82.944 326.4C82.944 287.232 114.816 255.36 153.984 255.36C193.152 255.36 225.024 287.232 225.024 326.4C225.024 365.568 193.152 397.44 153.984 397.44ZM153.984 224.64C114.816 224.64 82.944 192.768 82.944 153.6C82.944 114.432 114.816 82.56 153.984 82.56C193.152 82.56 225.024 114.432 225.024 153.6C225.024 192.768 193.152 224.64 153.984 224.64ZM326.784 397.44C287.616 397.44 255.744 365.568 255.744 326.4C255.744 287.232 287.616 255.36 326.784 255.36C365.952 255.36 397.824 287.232 397.824 326.4C397.824 365.568 365.952 397.44 326.784 397.44ZM326.784 224.64C287.616 224.64 255.744 192.768 255.744 153.6C255.744 114.432 287.616 82.56 326.784 82.56C365.952 82.56 397.824 114.432 397.824 153.6C397.824 192.768 365.952 224.64 326.784 224.64Z" fill="#FFFAEE"/>
</g>
<defs>
<clipPath id="clip0_19918_24571">
<rect width="480" height="480" fill="white"/>
</clipPath>
</defs>
</svg>
