<svg width="480" height="480" viewBox="0 0 480 480" fill="none" xmlns="http://www.w3.org/2000/svg">
<g clip-path="url(#clip0_11334_33619)">
<path d="M169.209 55.2518C184.466 55.2518 196.835 42.8833 196.835 27.6259C196.835 12.3685 184.466 0 169.209 0C153.951 0 141.583 12.3685 141.583 27.6259C141.583 42.8833 153.951 55.2518 169.209 55.2518Z" fill="#FFFAEE"/>
<path d="M239.809 55.2518C255.066 55.2518 267.434 42.8833 267.434 27.6259C267.434 12.3685 255.066 0 239.809 0C224.551 0 212.183 12.3685 212.183 27.6259C212.183 42.8833 224.551 55.2518 239.809 55.2518Z" fill="#FFFAEE"/>
<path d="M310.791 55.2518C326.048 55.2518 338.417 42.8833 338.417 27.6259C338.417 12.3685 326.048 0 310.791 0C295.534 0 283.165 12.3685 283.165 27.6259C283.165 42.8833 295.534 55.2518 310.791 55.2518Z" fill="#FFFAEE"/>
<path d="M169.209 126.235C184.466 126.235 196.835 113.867 196.835 98.6093C196.835 83.3519 184.466 70.9834 169.209 70.9834C153.951 70.9834 141.583 83.3519 141.583 98.6093C141.583 113.867 153.951 126.235 169.209 126.235Z" fill="#FFFAEE"/>
<path d="M98.6092 126.235C113.867 126.235 126.235 113.866 126.235 98.6091C126.235 83.3517 113.867 70.9832 98.6092 70.9832C83.3519 70.9832 70.9834 83.3517 70.9834 98.6091C70.9834 113.866 83.3519 126.235 98.6092 126.235Z" fill="#FFFAEE"/>
<path d="M239.809 126.235C255.066 126.235 267.434 113.867 267.434 98.6093C267.434 83.3519 255.066 70.9834 239.809 70.9834C224.551 70.9834 212.183 83.3519 212.183 98.6093C212.183 113.867 224.551 126.235 239.809 126.235Z" fill="#FFFAEE"/>
<path d="M310.791 126.235C326.048 126.235 338.417 113.867 338.417 98.6093C338.417 83.3519 326.048 70.9834 310.791 70.9834C295.534 70.9834 283.165 83.3519 283.165 98.6093C283.165 113.867 295.534 126.235 310.791 126.235Z" fill="#FFFAEE"/>
<path d="M381.39 126.235C396.648 126.235 409.016 113.867 409.016 98.6093C409.016 83.3519 396.648 70.9834 381.39 70.9834C366.133 70.9834 353.765 83.3519 353.765 98.6093C353.765 113.867 366.133 126.235 381.39 126.235Z" fill="#FFFAEE"/>
<path d="M310.791 480C326.048 480 338.417 467.631 338.417 452.374C338.417 437.117 326.048 424.748 310.791 424.748C295.534 424.748 283.165 437.117 283.165 452.374C283.165 467.631 295.534 480 310.791 480Z" fill="#FFFAEE"/>
<path d="M239.809 480C255.066 480 267.434 467.631 267.434 452.374C267.434 437.117 255.066 424.748 239.809 424.748C224.551 424.748 212.183 437.117 212.183 452.374C212.183 467.631 224.551 480 239.809 480Z" fill="#FFFAEE"/>
<path d="M169.209 480C184.466 480 196.835 467.631 196.835 452.374C196.835 437.117 184.466 424.748 169.209 424.748C153.951 424.748 141.583 437.117 141.583 452.374C141.583 467.631 153.951 480 169.209 480Z" fill="#FFFAEE"/>
<path d="M310.791 409.017C326.048 409.017 338.417 396.648 338.417 381.391C338.417 366.134 326.048 353.765 310.791 353.765C295.534 353.765 283.165 366.134 283.165 381.391C283.165 396.648 295.534 409.017 310.791 409.017Z" fill="#FFFAEE"/>
<path d="M381.39 409.017C396.648 409.017 409.016 396.648 409.016 381.391C409.016 366.134 396.648 353.765 381.39 353.765C366.133 353.765 353.765 366.134 353.765 381.391C353.765 396.648 366.133 409.017 381.39 409.017Z" fill="#FFFAEE"/>
<path d="M239.809 409.017C255.066 409.017 267.434 396.648 267.434 381.391C267.434 366.134 255.066 353.765 239.809 353.765C224.551 353.765 212.183 366.134 212.183 381.391C212.183 396.648 224.551 409.017 239.809 409.017Z" fill="#FFFAEE"/>
<path d="M169.209 409.017C184.466 409.017 196.835 396.648 196.835 381.391C196.835 366.134 184.466 353.765 169.209 353.765C153.951 353.765 141.583 366.134 141.583 381.391C141.583 396.648 153.951 409.017 169.209 409.017Z" fill="#FFFAEE"/>
<path d="M98.6092 409.017C113.867 409.017 126.235 396.648 126.235 381.391C126.235 366.133 113.867 353.765 98.6092 353.765C83.3519 353.765 70.9834 366.133 70.9834 381.391C70.9834 396.648 83.3519 409.017 98.6092 409.017Z" fill="#FFFAEE"/>
<path d="M169.209 196.834C184.466 196.834 196.835 184.466 196.835 169.208C196.835 153.951 184.466 141.583 169.209 141.583C153.951 141.583 141.583 153.951 141.583 169.208C141.583 184.466 153.951 196.834 169.209 196.834Z" fill="#FFFAEE"/>
<path d="M98.6092 196.835C113.867 196.835 126.235 184.466 126.235 169.209C126.235 153.951 113.867 141.583 98.6092 141.583C83.3519 141.583 70.9834 153.951 70.9834 169.209C70.9834 184.466 83.3519 196.835 98.6092 196.835Z" fill="#FFFAEE"/>
<path d="M27.6258 196.835C42.8832 196.835 55.2518 184.466 55.2518 169.209C55.2518 153.951 42.8832 141.583 27.6258 141.583C12.3685 141.583 0 153.951 0 169.209C0 184.466 12.3685 196.835 27.6258 196.835Z" fill="#FFFAEE"/>
<path d="M239.809 196.834C255.066 196.834 267.434 184.466 267.434 169.208C267.434 153.951 255.066 141.583 239.809 141.583C224.551 141.583 212.183 153.951 212.183 169.208C212.183 184.466 224.551 196.834 239.809 196.834Z" fill="#FFFAEE"/>
<path d="M310.791 196.834C326.048 196.834 338.417 184.466 338.417 169.208C338.417 153.951 326.048 141.583 310.791 141.583C295.534 141.583 283.165 153.951 283.165 169.208C283.165 184.466 295.534 196.834 310.791 196.834Z" fill="#FFFAEE"/>
<path d="M381.39 196.834C396.648 196.834 409.016 184.466 409.016 169.208C409.016 153.951 396.648 141.583 381.39 141.583C366.133 141.583 353.765 153.951 353.765 169.208C353.765 184.466 366.133 196.834 381.39 196.834Z" fill="#FFFAEE"/>
<path d="M452.374 196.834C467.631 196.834 480 184.466 480 169.208C480 153.951 467.631 141.583 452.374 141.583C437.116 141.583 424.748 153.951 424.748 169.208C424.748 184.466 437.116 196.834 452.374 196.834Z" fill="#FFFAEE"/>
<path d="M169.209 267.434C184.466 267.434 196.835 255.065 196.835 239.808C196.835 224.551 184.466 212.182 169.209 212.182C153.951 212.182 141.583 224.551 141.583 239.808C141.583 255.065 153.951 267.434 169.209 267.434Z" fill="#FFFAEE"/>
<path d="M98.6092 267.434C113.867 267.434 126.235 255.065 126.235 239.808C126.235 224.551 113.867 212.182 98.6092 212.182C83.3519 212.182 70.9834 224.551 70.9834 239.808C70.9834 255.065 83.3519 267.434 98.6092 267.434Z" fill="#FFFAEE"/>
<path d="M27.6258 267.434C42.8832 267.434 55.2518 255.065 55.2518 239.808C55.2518 224.551 42.8832 212.182 27.6258 212.182C12.3685 212.182 0 224.551 0 239.808C0 255.065 12.3685 267.434 27.6258 267.434Z" fill="#FFFAEE"/>
<path d="M239.809 267.434C255.066 267.434 267.434 255.065 267.434 239.808C267.434 224.551 255.066 212.182 239.809 212.182C224.551 212.182 212.183 224.551 212.183 239.808C212.183 255.065 224.551 267.434 239.809 267.434Z" fill="#FFFAEE"/>
<path d="M310.791 267.434C326.048 267.434 338.417 255.065 338.417 239.808C338.417 224.551 326.048 212.182 310.791 212.182C295.534 212.182 283.165 224.551 283.165 239.808C283.165 255.065 295.534 267.434 310.791 267.434Z" fill="#FFFAEE"/>
<path d="M381.39 267.434C396.648 267.434 409.016 255.065 409.016 239.808C409.016 224.551 396.648 212.182 381.39 212.182C366.133 212.182 353.765 224.551 353.765 239.808C353.765 255.065 366.133 267.434 381.39 267.434Z" fill="#FFFAEE"/>
<path d="M452.374 267.434C467.631 267.434 480 255.065 480 239.808C480 224.551 467.631 212.182 452.374 212.182C437.116 212.182 424.748 224.551 424.748 239.808C424.748 255.065 437.116 267.434 452.374 267.434Z" fill="#FFFAEE"/>
<path d="M169.209 338.417C184.466 338.417 196.835 326.049 196.835 310.791C196.835 295.534 184.466 283.166 169.209 283.166C153.951 283.166 141.583 295.534 141.583 310.791C141.583 326.049 153.951 338.417 169.209 338.417Z" fill="#FFFAEE"/>
<path d="M98.6092 338.417C113.867 338.417 126.235 326.049 126.235 310.791C126.235 295.534 113.867 283.166 98.6092 283.166C83.3519 283.166 70.9834 295.534 70.9834 310.791C70.9834 326.049 83.3519 338.417 98.6092 338.417Z" fill="#FFFAEE"/>
<path d="M27.6258 338.417C42.8832 338.417 55.2518 326.049 55.2518 310.791C55.2518 295.534 42.8832 283.166 27.6258 283.166C12.3685 283.166 0 295.534 0 310.791C0 326.049 12.3685 338.417 27.6258 338.417Z" fill="#FFFAEE"/>
<path d="M239.809 338.417C255.066 338.417 267.434 326.049 267.434 310.791C267.434 295.534 255.066 283.166 239.809 283.166C224.551 283.166 212.183 295.534 212.183 310.791C212.183 326.049 224.551 338.417 239.809 338.417Z" fill="#FFFAEE"/>
<path d="M310.791 338.417C326.048 338.417 338.417 326.049 338.417 310.791C338.417 295.534 326.048 283.166 310.791 283.166C295.534 283.166 283.165 295.534 283.165 310.791C283.165 326.049 295.534 338.417 310.791 338.417Z" fill="#FFFAEE"/>
<path d="M381.39 338.417C396.648 338.417 409.016 326.049 409.016 310.791C409.016 295.534 396.648 283.166 381.39 283.166C366.133 283.166 353.765 295.534 353.765 310.791C353.765 326.049 366.133 338.417 381.39 338.417Z" fill="#FFFAEE"/>
<path d="M452.374 338.417C467.631 338.417 480 326.049 480 310.791C480 295.534 467.631 283.166 452.374 283.166C437.116 283.166 424.748 295.534 424.748 310.791C424.748 326.049 437.116 338.417 452.374 338.417Z" fill="#FFFAEE"/>
</g>
<defs>
<clipPath id="clip0_11334_33619">
<rect width="480" height="480" fill="white"/>
</clipPath>
</defs>
</svg>
