<svg width="480" height="480" viewBox="0 0 480 480" fill="none" xmlns="http://www.w3.org/2000/svg">
<g clip-path="url(#clip0_19918_24701)">
<path d="M480 268.846V211.154H383.461C371.154 211.154 360 203.846 355.385 192.308V191.923C350.769 180.385 353.077 167.308 361.923 158.846L430.385 90.3846L389.615 49.6153L321.154 118.077C312.308 126.923 299.231 129.231 288.077 124.615H287.692C276.154 120 268.846 108.846 268.846 96.5384V0H211.154V96.5384C211.154 108.846 203.846 120 192.308 124.615H191.923C180.385 129.231 167.308 126.923 158.846 118.077L90.3846 49.6153L49.6155 90.3846L118.077 158.846C126.923 167.692 129.231 180.769 124.615 191.923V192.308C120 203.846 108.846 211.154 96.5383 211.154H0V268.846H96.5383C108.846 268.846 120 276.154 124.615 287.692V288.077C129.231 299.615 126.923 312.692 118.077 321.154L49.6155 389.615L90.3846 430.385L158.846 361.923C167.692 353.077 180.769 350.769 191.923 355.385H192.308C203.846 360 211.154 371.154 211.154 383.461V480H268.846V383.461C268.846 371.154 276.154 360 287.692 355.385H288.077C299.615 350.769 312.692 353.077 321.154 361.923L389.615 430.385L430.385 389.615L361.923 321.154C353.077 312.308 350.769 299.231 355.385 288.077V287.692C360 276.154 371.154 268.846 383.461 268.846H480Z" fill="#FFFAEE"/>
</g>
<defs>
<clipPath id="clip0_19918_24701">
<rect width="480" height="480" fill="white"/>
</clipPath>
</defs>
</svg>
