<svg width="480" height="480" viewBox="0 0 480 480" fill="none" xmlns="http://www.w3.org/2000/svg">
<path d="M213.689 302.933V409.6H169.244L239.644 480L310.4 409.6H265.955V302.933H213.689Z" fill="#FFFAEE"/>
<path d="M265.955 177.422V70.7554H310.4L240 0L169.244 70.7554H213.689V177.422H265.955Z" fill="#FFFAEE"/>
<path d="M265.955 302.933L341.334 378.311L309.689 409.956H409.6V310.044L377.956 341.689L302.578 266.311L265.955 302.933Z" fill="#FFFAEE"/>
<path d="M213.689 177.422L138.311 102.044L169.956 70.4H70.0445V170.311L101.689 138.667L177.067 214.044L213.689 177.422Z" fill="#FFFAEE"/>
<path d="M302.578 266.311H409.244V310.755L480 240.355L409.244 169.6V214.044H302.578L302.578 266.311Z" fill="#FFFAEE"/>
<path d="M177.067 214.044H70.4V169.6L0 240L70.4 310.755V266.311H177.067L177.067 214.044Z" fill="#FFFAEE"/>
<path d="M302.578 214.044L377.956 138.667L409.6 170.311V70.4H309.689L341.334 102.044L265.955 177.422L302.578 214.044Z" fill="#FFFAEE"/>
<path d="M177.067 266.311L101.689 341.689L70.0445 310.044V409.956H169.956L138.311 378.311L213.689 302.933L177.067 266.311Z" fill="#FFFAEE"/>
</svg>
