<svg width="480" height="480" viewBox="0 0 480 480" fill="none" xmlns="http://www.w3.org/2000/svg">
<path d="M409.482 70.272C315.843 -23.424 163.87 -23.424 70.2298 70.272C-23.41 163.968 -23.41 316.032 70.2298 409.728C163.87 503.424 315.843 503.424 409.482 409.728C503.506 315.648 503.506 163.968 409.482 70.272ZM396.818 264.576H328.123C292.816 264.576 264.417 292.992 264.417 328.32V397.056H215.295V328.32C215.295 292.992 186.896 264.576 151.589 264.576H82.8942V215.424H151.589C186.896 215.424 215.295 187.008 215.295 151.68V82.944H264.417V151.68C264.417 187.008 292.816 215.424 328.123 215.424H396.818V264.576Z" fill="#FFFAEE"/>
</svg>
