<svg width="480" height="480" viewBox="0 0 480 480" fill="none" xmlns="http://www.w3.org/2000/svg">
<path d="M240 75.264C330.624 75.264 404.736 148.992 404.736 240C404.736 331.008 331.008 404.736 240 404.736C148.992 404.736 75.2639 331.008 75.2639 240C75.2639 148.992 148.992 75.264 240 75.264ZM240 0C107.52 0 0 107.52 0 240C0 372.48 107.52 480 240 480C372.48 480 480 372.48 480 240C480 107.52 372.48 0 240 0Z" fill="#FFFAEE"/>
<path d="M240 0C107.52 0 0 107.52 0 240H240V0Z" fill="#FFFAEE"/>
<path d="M240 479.616C372.48 479.616 480 372.096 480 239.616H240V479.616Z" fill="#FFFAEE"/>
</svg>
