<svg width="480" height="480" viewBox="0 0 480 480" fill="none" xmlns="http://www.w3.org/2000/svg">
<g clip-path="url(#clip0_20006_16590)">
<path d="M480 337.651L302.518 304.57L469.359 200.765L457.197 181.373L298.717 279.855L427.173 9.50593L406.651 0L277.055 272.25L248.551 95.0593L226.128 98.8617L253.111 267.687L88.9312 54.3739L71.0691 68.4427L236.009 282.896L60.8076 208.37L52.0668 229.283L235.249 307.232L0 362.746L5.32076 385.18L220.807 333.848L147.079 389.363L160.76 407.614L257.672 334.989L243.23 478.719L265.653 481L280.475 335.749L374.727 431.189L391.069 415.219L305.178 328.145L475.82 360.085L480 337.651Z" fill="#FFFAEE"/>
</g>
<defs>
<clipPath id="clip0_20006_16590">
<rect width="480" height="480" fill="white"/>
</clipPath>
</defs>
</svg>
