<svg width="480" height="480" viewBox="0 0 480 480" fill="none" xmlns="http://www.w3.org/2000/svg">
<path d="M155.52 110.976V0H120.96V110.976L138.24 128.256L155.52 110.976Z" fill="#FFFAEE"/>
<path d="M165.887 155.52H314.495L331.775 138.24L314.495 120.96H165.887L148.607 138.24L165.887 155.52Z" fill="#FFFAEE"/>
<path d="M359.424 110.976V0H324.864V110.976L342.144 128.256L359.424 110.976Z" fill="#FFFAEE"/>
<path d="M110.976 120.96H0V155.52H110.976L128.256 138.24L110.976 120.96Z" fill="#FFFAEE"/>
<path d="M120.96 369.408V480H155.52V369.408L138.24 352.128L120.96 369.408Z" fill="#FFFAEE"/>
<path d="M369.409 359.424H480.001V324.864H369.409L352.129 342.144L369.409 359.424Z" fill="#FFFAEE"/>
<path d="M324.864 165.888V314.496L342.144 331.776L359.424 314.496V165.888L342.144 148.608L324.864 165.888Z" fill="#FFFAEE"/>
<path d="M480.001 120.96H369.409L352.129 138.24L369.409 155.52H480.001V120.96Z" fill="#FFFAEE"/>
<path d="M110.976 324.864H0V359.424H110.976L128.256 342.144L110.976 324.864Z" fill="#FFFAEE"/>
<path d="M155.52 314.496V165.888L138.24 148.608L120.96 165.888V314.496L138.24 331.776L155.52 314.496Z" fill="#FFFAEE"/>
<path d="M314.495 324.864H165.887L148.607 342.144L165.887 359.424H314.495L331.775 342.144L314.495 324.864Z" fill="#FFFAEE"/>
<path d="M324.864 369.408V480H359.424V369.408L342.144 352.128L324.864 369.408Z" fill="#FFFAEE"/>
</svg>
