<svg width="480" height="480" viewBox="0 0 480 480" fill="none" xmlns="http://www.w3.org/2000/svg">
<path d="M0 286.235V402.11C0 413.238 13.4399 418.993 21.5039 410.935L137.472 295.06C145.536 287.003 139.776 273.573 128.64 273.573H12.2878C5.37581 273.573 0 278.945 0 286.235Z" fill="#FFFAEE"/>
<path d="M137.472 184.94L21.5039 69.0649C13.4399 61.0073 0 66.7627 0 77.8898V193.765C0 200.672 5.75972 206.427 12.6717 206.427H128.64C139.776 206.427 145.152 192.998 137.472 184.94Z" fill="#FFFAEE"/>
<path d="M193.536 0.383789H77.568C66.432 0.383789 60.6718 13.813 68.7358 21.8706L184.704 137.746C192.768 145.803 206.208 140.048 206.208 128.921V13.0457C206.208 5.7555 200.832 0.383789 193.536 0.383789Z" fill="#FFFAEE"/>
<path d="M273.408 12.6619V128.537C273.408 139.664 286.848 145.42 294.912 137.362L410.88 21.4868C418.944 13.4293 413.184 0 402.048 0H286.08C278.784 0.383693 273.408 5.75541 273.408 12.6619Z" fill="#FFFAEE"/>
<path d="M342.144 295.06L458.112 410.935C466.176 418.993 479.616 413.238 479.616 402.11V286.235C479.616 279.329 473.857 273.573 466.944 273.573H350.976C339.84 273.573 334.464 287.003 342.144 295.06Z" fill="#FFFAEE"/>
<path d="M480 193.765V77.8898C480 66.7627 466.56 61.0073 458.496 69.0649L342.528 184.94C334.464 192.998 340.224 206.427 351.36 206.427H467.328C474.24 206.427 480 201.055 480 193.765Z" fill="#FFFAEE"/>
<path d="M273.408 351.463V467.338C273.408 474.245 279.168 480 286.08 480H402.048C413.184 480 418.944 466.571 410.88 458.513L294.912 342.638C286.848 334.58 273.408 339.952 273.408 351.463Z" fill="#FFFAEE"/>
<path d="M184.703 342.254L68.7348 458.13C60.6708 466.187 66.431 479.616 77.567 479.616H193.535C200.447 479.616 206.207 473.861 206.207 466.955V351.079C206.207 339.952 192.767 334.58 184.703 342.254Z" fill="#FFFAEE"/>
</svg>
