<svg width="480" height="480" viewBox="0 0 480 480" fill="none" xmlns="http://www.w3.org/2000/svg">
<path d="M196.835 480H113.957C51.0314 480 0 428.969 0 366.043V283.166H41.8226V366.043C41.8226 405.564 74.0531 437.794 113.573 437.794H196.451V480H196.835Z" fill="#FFFAEE"/>
<path d="M366.044 480H283.166V438.178H366.044C405.564 438.178 437.794 405.947 437.794 366.427V283.166H479.617V366.043C480 428.585 428.585 480 366.044 480Z" fill="#FFFAEE"/>
<path d="M480.001 196.835H438.178V113.957C438.178 74.4367 405.948 42.2064 366.427 42.2064H283.166V0.383789H366.044C428.969 0.383789 480.001 51.415 480.001 114.341V196.835Z" fill="#FFFAEE"/>
<path d="M0.384766 196.835V113.957C0.384766 51.0312 51.4157 0 114.341 0H197.219V41.8224H114.341C74.821 41.8224 42.591 74.0527 42.591 113.573V196.835H0.384766Z" fill="#FFFAEE"/>
</svg>
