<svg width="480" height="480" viewBox="0 0 480 480" fill="none" xmlns="http://www.w3.org/2000/svg">
<path d="M0 127.002V352.998C0 423.213 56.7643 480 126.953 480H352.86C423.048 480 479.813 423.213 479.813 352.998V127.002C479.813 56.7866 423.048 0 352.86 0H126.953C56.7643 0.383693 0 57.1703 0 127.002ZM127.336 448.153C74.4073 448.153 31.4504 405.18 31.4504 352.23C31.4504 299.281 74.4073 256.307 127.336 256.307C180.265 256.307 223.222 299.281 223.222 352.23C223.222 405.18 180.265 448.153 127.336 448.153ZM127.336 223.693C74.4073 223.693 31.4504 180.719 31.4504 127.77C31.4504 74.8201 74.4073 31.8465 127.336 31.8465C180.265 31.8465 223.222 74.8201 223.222 127.77C223.222 180.719 180.265 223.693 127.336 223.693ZM351.709 448.153C298.78 448.153 255.823 405.18 255.823 352.23C255.823 299.281 298.78 256.307 351.709 256.307C404.638 256.307 447.595 299.281 447.595 352.23C447.595 405.18 404.638 448.153 351.709 448.153ZM351.709 223.693C298.78 223.693 255.823 180.719 255.823 127.77C255.823 74.8201 298.78 31.8465 351.709 31.8465C404.638 31.8465 447.595 74.8201 447.595 127.77C447.595 180.719 404.638 223.693 351.709 223.693Z" fill="#FFFAEE"/>
</svg>
