<svg width="480" height="480" viewBox="0 0 480 480" fill="none" xmlns="http://www.w3.org/2000/svg">
<path d="M289.688 0H190.312C173.429 0 160 13.4401 160 30.3361V129.792C160 146.688 173.429 160.128 190.312 160.128H289.688C306.57 160.128 320 146.688 320 129.792V30.3361C320 13.4401 306.187 0 289.688 0Z" fill="#FFFAEE"/>
<path d="M190.312 480H289.688C306.57 480 320 466.56 320 449.664V350.208C320 333.312 306.57 319.872 289.688 319.872H190.312C173.429 319.872 160 333.312 160 350.208V449.664C160 466.176 173.813 480 190.312 480Z" fill="#FFFAEE"/>
<path d="M320 190.08V289.536C320 306.432 333.429 319.872 350.312 319.872H449.688C466.571 319.872 480 306.432 480 289.536V190.08C480 173.184 466.571 159.744 449.688 159.744H350.312C333.429 159.744 320 173.568 320 190.08Z" fill="#FFFAEE"/>
<path d="M0 190.08V289.536C0 306.432 13.4293 319.872 30.3118 319.872H129.688C146.571 319.872 160 306.432 160 289.536V190.08C160 173.184 146.571 159.744 129.688 159.744H30.3118C13.813 159.744 0 173.568 0 190.08Z" fill="#FFFAEE"/>
</svg>
