<svg width="480" height="480" viewBox="0 0 480 480" fill="none" xmlns="http://www.w3.org/2000/svg">
<path d="M451.581 293.937C432.399 274.712 406.823 265.099 381.602 265.455C366.682 265.455 353.184 257.623 345.724 244.806L324.411 208.136C316.951 195.319 316.951 179.298 324.411 166.482C346.435 129.1 341.461 79.9686 309.136 47.5707C271.126 9.47644 209.317 9.47644 170.953 47.5707C138.627 79.9686 133.654 128.744 155.678 166.482C163.138 179.298 163.138 195.319 155.678 208.136L134.364 244.806C126.905 257.623 113.406 265.811 98.4867 265.455C73.2657 265.099 47.6891 274.712 28.5069 293.937C-9.5023 332.031 -9.5023 393.979 28.5069 432.429C66.5161 470.524 128.326 470.524 166.69 432.429C173.084 426.021 178.412 418.9 182.675 411.424C190.135 398.607 203.633 390.419 218.553 390.419H260.825C275.744 390.419 289.598 398.251 296.703 411.424C300.965 418.9 306.294 426.021 312.688 432.429C350.697 470.524 412.507 470.524 450.871 432.429C489.591 393.979 489.59 332.031 451.581 293.937ZM182.32 271.508L203.634 234.838C211.093 221.665 224.947 214.188 240.222 214.188C240.577 214.188 240.932 214.188 241.287 214.188C256.207 214.188 270.061 222.021 277.876 234.838L299.19 271.508C306.649 284.325 306.649 300.346 298.834 313.162C298.479 313.518 298.479 313.874 298.479 314.23C291.019 327.403 277.165 335.592 262.246 335.592H219.974C205.054 335.592 191.201 327.403 183.741 314.23C183.741 313.874 183.385 313.518 183.385 313.162C174.86 300.702 174.86 284.681 182.32 271.508Z" fill="#FFFAEE"/>
</svg>
