<svg width="480" height="480" viewBox="0 0 480 480" fill="none" xmlns="http://www.w3.org/2000/svg">
<path d="M363.603 465H116.567C86.2161 465 61.6279 439.352 61.6279 407.693C61.6279 376.034 86.2161 350.386 116.567 350.386H363.603C393.954 350.386 418.542 376.034 418.542 407.693C418.542 439.352 393.954 465 363.603 465Z" fill="#FFFAEE"/>
<path d="M425.458 353.192C406.632 353.192 388.191 342.772 377.818 324.739L254.492 101.924C239.509 74.6731 248.345 39.4074 274.47 23.7783C300.595 8.14922 334.404 17.3664 349.388 44.6172L472.714 267.432C487.697 294.683 478.86 329.949 452.735 345.578C443.899 350.787 434.678 353.192 425.458 353.192Z" fill="#FFFAEE"/>
<path d="M54.7127 353.192C45.4921 353.192 35.8874 350.788 27.4352 345.578C1.31013 329.949 -7.91053 294.683 7.45715 267.432L130.783 44.6173C145.766 17.3665 179.575 7.74863 205.7 23.7785C231.825 39.4076 241.046 74.6733 225.678 101.924L102.353 324.739C92.3636 342.773 73.9223 353.192 54.7127 353.192Z" fill="#FFFAEE"/>
</svg>
