<svg width="480" height="480" viewBox="0 0 480 480" fill="none" xmlns="http://www.w3.org/2000/svg">
<g clip-path="url(#clip0_20006_16586)">
<path d="M60.5903 225.271C59.4362 200.303 25.5834 192.62 14.4274 215.283C-4.42251 253.696 -5.19189 293.646 14.4274 334.363C39.0476 385.452 81.7483 411.957 139.837 414.646C139.837 418.488 140.221 426.554 140.221 434.621C140.221 443.072 149.454 448.45 156.763 444.224L293.713 365.862C301.022 361.636 301.022 350.881 293.713 346.655L157.148 268.293C149.839 264.068 140.606 269.446 140.606 277.896C140.606 285.195 140.606 292.877 140.606 296.335C100.213 298.639 62.1291 267.141 60.5903 225.271Z" fill="#FFFAEE"/>
<path d="M378.737 95.0511C401.049 106.575 424.515 80.8384 410.282 60.0955C386.431 24.7556 352.194 4.01264 307.185 0.555481C250.635 -4.05406 206.011 20.1459 174.851 68.5461C171.389 66.6254 164.464 62.7842 157.54 58.9429C150.231 54.7175 140.998 60.0952 140.998 68.5461L140.613 226.039C140.613 234.49 149.846 239.868 157.155 235.642L293.336 156.512C300.645 152.286 300.645 141.531 293.336 137.305C286.796 133.464 280.256 130.007 277.563 128.086C295.259 92.3621 341.807 75.4605 378.737 95.0511Z" fill="#FFFAEE"/>
<path d="M332.575 435.005C311.417 448.45 321.804 481.485 347.193 479.948C389.894 476.875 424.901 457.669 450.675 420.408C482.989 373.545 484.528 323.224 457.6 271.75C460.677 269.83 467.986 265.604 474.526 261.763C481.835 257.538 481.835 246.782 474.526 242.557L338.345 163.426C331.036 159.201 321.419 164.578 321.804 173.029L322.188 330.522C322.188 338.973 331.421 344.351 338.73 340.125C345.27 336.284 351.81 332.827 354.887 330.906C376.43 364.325 367.967 413.11 332.575 435.005Z" fill="#FFFAEE"/>
</g>
<defs>
<clipPath id="clip0_20006_16586">
<rect width="480" height="480" fill="white"/>
</clipPath>
</defs>
</svg>
