<svg width="600" height="600" viewBox="0 0 600 600" fill="none" xmlns="http://www.w3.org/2000/svg">
<path fill-rule="evenodd" clip-rule="evenodd" d="M103.726 250.695C120.761 240.899 139.73 236.702 157.127 238.87C174.904 241.085 188.951 249.655 196.686 262.991C204.422 276.327 204.842 292.727 197.883 309.162C191.07 325.254 177.934 339.508 160.898 349.304C146.793 357.414 131.369 361.687 116.604 361.687C113.534 361.687 110.492 361.501 107.497 361.129C89.7197 358.914 75.6733 350.345 67.9378 337.009C60.2023 323.673 59.7817 307.273 66.7407 290.838C73.5538 274.746 86.6899 260.491 103.726 250.695ZM114.697 255.123C114.454 255.238 114.211 255.355 113.968 255.473C109.143 259.073 104.592 264.142 100.118 271.13C84.3375 295.779 88.2546 335.503 108.746 347.409C113.341 350.079 118.141 351.596 122.788 352.147C110.369 343.829 99.8202 323.836 99.8202 299.924H99.8263C99.8276 281.465 106.116 265.342 114.697 255.123ZM94.5766 268.259C73.5071 286.735 65.2894 313.012 76.3914 332.16C81.5101 340.992 90.1365 347.284 101.13 350.355C91.573 343.692 83.4151 332.276 81.5231 319.545C79.3222 304.744 82.9832 288.768 90.7771 274.56C91.995 272.341 93.2627 270.241 94.5766 268.259ZM109.249 304.081C109.728 316.097 112.279 327.225 116.558 335.765C119.95 342.537 124.194 347.044 128.573 348.66C128.094 336.643 124.959 326.097 120.679 317.557C117.287 310.784 113.627 305.697 109.249 304.081ZM155.061 304.081C150.682 305.697 147.028 310.778 143.63 317.557C139.35 326.097 136.215 336.637 135.736 348.66C140.115 347.044 144.353 342.543 147.751 335.765C152.03 327.224 154.582 316.103 155.061 304.081ZM142.06 247.66C141.878 247.675 141.696 247.69 141.514 247.706C153.933 256.022 164.482 276.013 164.484 299.924L164.48 300.663C164.316 318.76 158.117 334.549 149.69 344.636C155.41 340.775 160.456 334.787 167.753 321.69C177.561 304.087 175.792 268.903 157.956 252.968C152.864 248.414 145.841 247.779 142.06 247.66ZM132.179 263.426C130.192 286.328 122.856 299.713 108.924 299.927C123.549 300.163 130.453 315.371 131.871 340.532C133.393 315.369 140.748 300.16 155.383 299.927C141.562 299.706 134.233 286.13 132.179 263.426ZM163.419 249.469C182.628 262.267 191.26 296.372 173.76 325.231C172.299 327.894 170.657 330.436 168.866 332.846C177.952 325.244 184.985 316.051 189.208 306.081C195.046 292.285 194.777 278.67 188.443 267.747C183.134 258.592 174.203 252.431 163.419 249.469ZM128.568 251.201C124.189 252.817 119.951 257.317 116.553 264.095C112.273 272.635 109.722 283.757 109.243 295.78C113.621 294.163 117.276 289.082 120.674 282.304C124.954 273.763 128.089 263.223 128.568 251.201ZM135.736 251.201C136.215 263.217 139.35 273.763 143.63 282.304C147.022 289.076 150.682 294.163 155.061 295.78C154.582 283.763 152.03 272.636 147.751 264.096C144.359 257.323 140.115 252.817 135.736 251.201Z" fill="#FFFAEE"/>
<path d="M224.995 281.552C230.217 286.37 237.023 288.773 245.409 288.773C253.795 288.773 260.584 286.364 265.772 281.552C270.124 277.518 272.641 272.598 273.345 266.803V306.409H290.145L290.157 282.393H290.361C293.867 286.705 298.85 288.864 305.315 288.864C312.258 288.864 317.826 286.552 322.019 281.921C325.729 277.825 327.797 272.507 328.223 265.962C328.78 272.195 331.297 277.404 335.785 281.592C340.904 286.376 347.728 288.768 356.256 288.768C362.648 288.768 368.17 287.364 372.96 284.359C377.885 281.268 381.09 276.893 382.345 272.524V287.364H399.151V260.82C399.151 257.82 400.009 255.383 401.731 253.502C403.447 251.627 405.685 250.69 408.435 250.69C411.185 250.69 413.162 251.457 414.571 252.985C415.98 254.519 416.685 256.599 416.685 259.224V287.359H433.491V256.127C433.491 250.69 431.854 246.298 428.593 242.952C425.326 239.605 420.844 237.935 415.139 237.935C408.333 237.935 402.901 240.594 398.845 245.906H398.538V243.889C398.538 241.378 396.504 239.344 393.993 239.344H382.351V262.445C381.584 254.508 378.562 248.332 373.272 243.94C368.46 239.94 362.443 237.935 355.227 237.935C347.251 237.935 340.74 240.344 335.689 245.156C331.246 249.394 328.757 254.57 328.223 260.695C327.78 254.502 325.769 249.304 322.184 245.111C318.093 240.327 312.61 237.935 305.736 237.935C298.861 237.935 293.81 240.344 289.753 245.156H289.447V242.753C289.447 240.872 287.918 239.344 286.038 239.344H273.362V259.922C272.658 254.122 270.135 249.201 265.783 245.162C260.584 240.349 253.801 237.941 245.415 237.941C237.029 237.941 230.222 240.349 224.995 245.162C219.774 249.98 217.16 256.042 217.16 263.36C217.16 270.678 219.774 276.74 224.995 281.558V281.552ZM355.54 248.821C358.29 248.821 360.574 249.667 362.398 251.355C364.216 253.042 365.267 255.326 365.545 258.201H344.717C345.955 251.951 349.563 248.821 355.546 248.821H355.54ZM382.357 267.297V271.751H368.176C367.017 271.751 365.932 272.337 365.312 273.319C363.733 275.808 361.227 277.768 356.472 277.802C353.103 277.825 350.421 276.882 348.427 275.035C346.432 273.189 345.16 270.609 344.609 267.297H382.357ZM292.537 254.025C294.463 251.491 297.179 250.224 300.685 250.224C304.19 250.224 306.838 251.446 308.622 253.883C310.411 256.32 311.303 259.667 311.303 263.917C311.303 268.166 310.394 271.183 308.571 273.53C306.747 275.876 304.224 277.047 300.991 277.047C297.418 277.047 294.634 275.842 292.64 273.433C290.645 271.024 289.651 267.854 289.651 263.917C289.651 259.979 290.611 256.553 292.537 254.019V254.025ZM237.063 252.667C238.989 250.042 241.739 248.73 245.312 248.73C248.886 248.73 251.653 250.059 253.613 252.718C255.573 255.377 256.55 258.922 256.55 263.365C256.55 267.808 255.573 271.337 253.613 273.961C251.653 276.586 248.886 277.899 245.312 277.899C241.739 277.899 238.989 276.586 237.063 273.961C235.137 271.337 234.177 267.803 234.177 263.365C234.177 258.928 235.137 255.298 237.063 252.673V252.667Z" fill="#FFFAEE"/>
<path d="M433.491 294.029H416.685V306.409H433.491V294.029Z" fill="#FFFAEE"/>
<path d="M535.526 316.681C532.259 313.335 527.776 311.664 522.072 311.664C515.265 311.664 509.834 314.323 505.777 319.635H505.47V316.482C505.47 314.602 503.942 313.073 502.061 313.073H489.283V331.476C488.46 326.01 485.971 321.34 481.807 317.482C476.614 312.67 469.83 310.261 461.444 310.261C453.058 310.261 446.251 312.67 441.03 317.482C436.837 321.346 434.332 326.016 433.502 331.487V316.482C433.502 314.602 431.974 313.073 430.093 313.073H416.696V341.879C416.48 340.81 416.156 339.822 415.719 338.913C414.861 337.129 413.844 335.725 412.679 334.691C411.509 333.657 409.912 332.754 407.884 331.97C405.856 331.192 404.083 330.641 402.572 330.328C401.06 330.016 399.134 329.669 396.799 329.294C396.248 329.231 395.527 329.124 394.635 328.964C393.743 328.811 393.038 328.68 392.521 328.589C392.004 328.499 391.351 328.385 390.561 328.26C389.771 328.135 389.152 328.01 388.703 327.885C388.254 327.76 387.754 327.601 387.209 327.413C386.658 327.226 386.232 327.038 385.919 326.851C385.612 326.663 385.3 326.448 384.993 326.192C384.686 325.942 384.459 325.663 384.323 325.345C384.186 325.033 384.118 324.686 384.118 324.311C384.118 322.874 384.789 321.777 386.129 321.027C387.47 320.277 389.237 319.902 391.442 319.902C395.51 319.902 398.129 321.101 399.294 323.505C399.879 324.709 401.043 325.533 402.384 325.533H415.367C414.952 320.721 412.719 316.954 408.662 314.232C404.606 311.511 398.901 310.153 391.544 310.153C385.01 310.153 379.584 311.499 375.249 314.187C370.92 316.874 368.755 320.658 368.755 325.533C368.755 327.72 369.13 329.646 369.892 331.3C370.647 332.959 371.596 334.271 372.727 335.237C373.863 336.208 375.34 337.066 377.158 337.816C378.982 338.566 380.647 339.117 382.158 339.458C383.669 339.805 385.527 340.129 387.726 340.441C388.209 340.504 388.964 340.612 389.993 340.771C391.021 340.93 391.777 341.055 392.26 341.146C392.737 341.242 393.407 341.367 394.271 341.521C395.129 341.68 395.782 341.816 396.231 341.941C396.68 342.066 397.208 342.237 397.828 342.458C398.447 342.68 398.913 342.913 399.22 343.163C399.526 343.413 399.856 343.697 400.197 344.009C400.538 344.322 400.782 344.668 400.918 345.043C401.055 345.418 401.123 345.856 401.123 346.356C401.123 347.856 400.384 349.026 398.907 349.873C397.43 350.719 395.419 351.14 392.873 351.14C387.027 351.14 383.8 348.765 383.181 344.009H368.142C368.022 342.1 367.608 340.39 366.892 338.896C366.034 337.112 365.017 335.708 363.852 334.674C362.682 333.64 361.085 332.737 359.057 331.953C357.029 331.175 355.256 330.623 353.745 330.311C352.233 329.999 350.307 329.652 347.972 329.277C347.421 329.214 346.7 329.106 345.807 328.947C344.915 328.794 344.211 328.663 343.694 328.572C343.177 328.476 342.524 328.368 341.734 328.243C340.944 328.118 340.325 327.993 339.876 327.868C339.427 327.743 338.933 327.584 338.382 327.396C337.831 327.209 337.404 327.021 337.092 326.834C336.785 326.646 336.473 326.431 336.166 326.175C335.859 325.925 335.632 325.646 335.495 325.328C335.359 325.016 335.291 324.669 335.291 324.294C335.291 322.857 335.961 321.76 337.302 321.01C338.643 320.26 340.41 319.885 342.614 319.885C346.682 319.885 349.302 321.084 350.466 323.487C351.052 324.692 352.216 325.516 353.557 325.516H366.539C366.125 320.704 363.892 316.937 359.835 314.215C355.779 311.494 350.074 310.136 342.717 310.136C336.183 310.136 330.757 311.482 326.428 314.17C322.098 316.857 319.934 320.641 319.934 325.516C319.934 327.703 320.309 329.629 321.07 331.283C321.826 332.942 322.769 334.254 323.905 335.22C325.041 336.191 326.519 337.049 328.337 337.799C330.155 338.549 331.825 339.1 333.337 339.441C334.848 339.788 336.706 340.112 338.904 340.424C339.382 340.487 340.143 340.595 341.171 340.754C342.205 340.913 342.961 341.038 343.438 341.129C343.916 341.225 344.586 341.35 345.45 341.504C346.307 341.663 346.961 341.799 347.41 341.924C347.859 342.049 348.387 342.219 349.006 342.441C349.625 342.663 350.091 342.896 350.398 343.146C350.705 343.396 351.035 343.68 351.375 343.992C351.716 344.305 351.961 344.651 352.097 345.026C352.233 345.401 352.301 345.839 352.301 346.339C352.301 347.839 351.563 349.009 350.086 349.855C348.608 350.702 346.597 351.122 344.052 351.122C339.183 351.122 336.126 349.475 334.888 346.174C334.388 344.839 333.058 343.998 331.626 343.998H318.479C318.479 343.998 318.479 344.026 318.479 344.043H304.969C303.81 344.043 302.724 344.628 302.105 345.611C300.526 348.1 298.02 350.054 293.265 350.094C289.895 350.117 287.214 349.174 285.22 347.327C283.225 345.481 281.953 342.901 281.402 339.589H319.349C319.485 329.271 316.394 321.488 310.071 316.238C305.258 312.238 299.242 310.232 292.026 310.232C284.049 310.232 277.538 312.641 272.487 317.454C267.436 322.272 264.908 328.3 264.908 335.555C264.908 336.731 264.982 337.867 265.107 338.981C265.09 338.953 265.078 338.919 265.067 338.884C264.209 337.1 263.192 335.697 262.027 334.663C260.857 333.629 259.261 332.726 257.232 331.942C255.204 331.163 253.431 330.612 251.92 330.3C250.409 329.987 248.483 329.641 246.148 329.266C245.596 329.203 244.875 329.095 243.983 328.936C243.091 328.783 242.386 328.652 241.869 328.561C241.352 328.47 240.699 328.357 239.909 328.232C239.12 328.107 238.5 327.982 238.051 327.857C237.603 327.732 237.103 327.572 236.557 327.385C236.006 327.198 235.58 327.01 235.267 326.823C234.961 326.635 234.648 326.419 234.341 326.163C234.035 325.913 233.807 325.635 233.671 325.317C233.535 325.004 233.466 324.658 233.466 324.283C233.466 322.845 234.137 321.749 235.478 320.999C236.818 320.249 238.585 319.874 240.79 319.874C244.858 319.874 247.477 321.073 248.642 323.476C249.227 324.681 250.392 325.504 251.733 325.504H264.715C264.3 320.692 262.067 316.925 258.011 314.204C253.954 311.482 248.25 310.124 240.892 310.124C234.358 310.124 228.933 311.471 224.597 314.158C220.268 316.846 218.103 320.63 218.103 325.504C218.103 327.692 218.478 329.618 219.24 331.271C219.995 332.93 220.944 334.243 222.075 335.208C223.211 336.18 224.688 337.038 226.506 337.788C228.33 338.538 229.995 339.089 231.506 339.43C233.018 339.776 234.875 340.1 237.074 340.413C237.557 340.475 238.313 340.583 239.341 340.742C240.369 340.901 241.125 341.026 241.608 341.117C242.085 341.214 242.756 341.339 243.619 341.492C244.477 341.651 245.131 341.788 245.579 341.913C246.028 342.038 246.557 342.208 247.176 342.43C247.795 342.651 248.261 342.884 248.568 343.134C248.875 343.384 249.204 343.668 249.545 343.981C249.886 344.293 250.13 344.64 250.267 345.015C250.403 345.39 250.471 345.827 250.471 346.327C250.471 347.827 249.733 348.998 248.255 349.844C246.778 350.691 244.767 351.111 242.222 351.111C237.353 351.111 234.296 349.463 233.057 346.162C232.557 344.827 231.228 343.986 229.796 343.986H216.649C216.922 349.299 219.348 353.475 223.916 356.509C228.484 359.543 234.62 361.059 242.324 361.059C249.471 361.059 255.266 359.685 259.698 356.935C264.13 354.185 266.351 350.248 266.351 345.117C266.351 344.884 266.345 344.657 266.334 344.43C267.59 348.009 269.675 351.162 272.584 353.884C277.703 358.668 284.526 361.059 293.054 361.059C299.446 361.059 304.969 359.656 309.758 356.651C314.195 353.867 317.235 350.043 318.712 346.111C319.457 350.424 321.797 353.895 325.746 356.509C330.314 359.543 336.45 361.059 344.154 361.059C351.302 361.059 357.097 359.685 361.528 356.935C365.13 354.702 367.272 351.679 367.943 347.878C368.971 351.384 371.176 354.264 374.567 356.514C379.135 359.548 385.271 361.065 392.976 361.065C400.123 361.065 405.918 359.69 410.35 356.94C413.838 354.776 415.946 351.878 416.69 348.242V361.065H433.496V339.833C434.326 345.305 436.831 349.975 441.024 353.838C446.246 358.656 453.052 361.059 461.438 361.059C469.824 361.059 476.614 358.651 481.801 353.838C485.96 349.98 488.454 345.31 489.278 339.845V361.065H506.084V334.521C506.084 331.521 506.942 329.084 508.663 327.203C510.379 325.328 512.618 324.391 515.367 324.391C518.117 324.391 520.094 325.158 521.503 326.686C522.912 328.22 523.617 330.3 523.617 332.924V361.059H540.423V329.828C540.423 324.391 538.787 319.999 535.526 316.653V316.681ZM292.333 321.135C295.083 321.135 297.367 321.982 299.19 323.669C301.009 325.357 302.06 327.641 302.338 330.516H281.509C282.748 324.266 286.356 321.135 292.339 321.135H292.333ZM469.637 346.27C467.677 348.895 464.91 350.208 461.336 350.208C457.762 350.208 455.012 348.895 453.086 346.27C451.16 343.646 450.2 340.112 450.2 335.674C450.2 331.237 451.16 327.607 453.086 324.982C455.012 322.357 457.762 321.044 461.336 321.044C464.91 321.044 467.677 322.374 469.637 325.033C471.597 327.692 472.574 331.237 472.574 335.68C472.574 340.123 471.597 343.651 469.637 346.276V346.27Z" fill="#FFFAEE"/>
</svg>
